<?xml version="1.0" encoding="UTF-8"?>
<svg version="1.1" xmlns="http://www.w3.org/2000/svg" width="512" height="512">
<path d="M0 0 C1.93254389 -0.00407849 3.86508543 -0.00942744 5.79762268 -0.01593018 C10.98568394 -0.02945789 16.17356367 -0.02436608 21.36162758 -0.01479292 C26.82861391 -0.00712002 32.2955862 -0.01426286 37.76257324 -0.01895142 C46.93793486 -0.02438699 56.11322369 -0.01727542 65.28857422 -0.00292969 C75.84903215 0.01339252 86.40931623 0.00810245 96.96976995 -0.0084089 C106.08801162 -0.02208679 115.20620139 -0.02391281 124.32445002 -0.0160929 C129.74794006 -0.01145083 135.17134878 -0.0106948 140.59483337 -0.02070236 C145.69716846 -0.02946218 150.79928258 -0.0231882 155.90159416 -0.00601959 C157.75774204 -0.00210233 159.61390899 -0.00310534 161.4700489 -0.00980759 C191.05709885 -0.10667187 219.43262037 6.49778598 242.87695312 25.38818359 C243.3988623 25.79939453 243.92077148 26.21060547 244.45849609 26.63427734 C252.31232926 32.84546368 258.83041919 39.34930515 264.87695312 47.38818359 C265.52921875 48.17966797 266.18148438 48.97115234 266.85351562 49.78662109 C285.63709603 73.50931029 292.47802481 105.70030473 289.41210938 135.34521484 C285.497307 167.46467219 269.45889233 196.86193612 244.12695312 217.13818359 C227.32522811 230.05562637 206.71515276 239.3990089 185.49780273 241.6394043 C176.99884099 242.74742738 170.64100928 246.51328418 163.43945312 250.95068359 C162.16405543 251.71924914 160.88774942 252.48630917 159.6105957 253.25195312 C156.32416686 255.22770042 153.0501525 257.22304055 149.77966309 259.22503662 C146.82001726 261.0342998 143.85219356 262.83000504 140.88476562 264.62646484 C137.4675293 266.69756897 134.05123057 268.77011579 130.64013672 270.85131836 C120.19399438 277.22221619 109.67838127 283.47362888 99.14916992 289.70605469 C98.51960892 290.07910736 97.89004791 290.45216003 97.2414093 290.83651733 C95.99317936 291.57470468 94.74358885 292.31059659 93.49259949 293.0440979 C90.24556895 294.95377746 87.04224857 296.9102517 83.87548828 298.95068359 C83.2142244 299.36890381 82.55296051 299.78712402 81.87165833 300.21801758 C80.61844989 301.01269241 79.37384726 301.82118689 78.14042664 302.64624023 C73.43178686 305.60347424 70.25722527 305.82448926 64.87695312 305.38818359 C61.92070941 304.17090677 61.08029846 302.91396971 58.87695312 300.38818359 C57.15060661 293.932106 58.60498361 288.19944856 59.96679688 281.76708984 C60.19017227 280.66719223 60.41354767 279.56729462 60.64369202 278.43406677 C61.35643441 274.93728071 62.08519401 271.44405838 62.81445312 267.95068359 C63.30184336 265.57394802 63.78818333 263.19699682 64.2734375 260.81982422 C65.46245419 255.00672432 66.66462258 249.19646349 67.87695312 243.38818359 C66.78717667 243.38231735 65.69740021 243.37645111 64.57460022 243.3704071 C54.23430665 243.31284694 43.89421669 243.23991607 33.55413151 243.15246868 C28.23996093 243.10800568 22.9258628 243.06869856 17.61157227 243.04174805 C12.46964396 243.01547237 7.32799814 242.9749045 2.18624687 242.92499733 C0.23819976 242.90849085 -1.70989602 242.89687682 -3.65800285 242.89056969 C-39.14000283 242.76422929 -68.57938126 232.02974177 -95.12304688 208.38818359 C-95.78046875 207.81583984 -96.43789062 207.24349609 -97.11523438 206.65380859 C-118.19831891 187.0838641 -130.22897138 156.57933785 -131.43945312 128.24365234 C-131.79655491 114.50184669 -130.71462733 101.66038156 -127.12304688 88.38818359 C-126.94644531 87.71787109 -126.76984375 87.04755859 -126.58789062 86.35693359 C-118.59737069 56.99917146 -97.32361863 31.39335798 -71.12304688 16.38818359 C-48.53484054 3.77808263 -25.65325768 -0.09263009 0 0 Z M-75.12304688 45.38818359 C-75.87070313 45.99146484 -76.61835937 46.59474609 -77.38867188 47.21630859 C-93.37995658 60.52374132 -103.00790989 79.52941649 -108.12304688 99.38818359 C-108.36796875 100.26990234 -108.61289063 101.15162109 -108.86523438 102.06005859 C-112.23361234 116.54869805 -111.019551 133.16258447 -107.12304688 147.38818359 C-106.84460938 148.40783203 -106.56617188 149.42748047 -106.27929688 150.47802734 C-98.37633052 176.40111957 -80.49025879 197.27983485 -56.87304688 210.13818359 C-48.95881672 214.28461947 -40.84463569 217.38854471 -32.12304688 219.38818359 C-31.40352844 219.56073166 -30.68401001 219.73327972 -29.94268799 219.91105652 C-19.89403003 221.94236703 -9.77099877 221.66892244 0.4384594 221.66257858 C3.89801802 221.66160528 7.35727284 221.67464648 10.81678772 221.69155884 C20.64386756 221.73761539 30.4709114 221.76246585 40.2980957 221.76904297 C46.32911493 221.77405064 52.35980922 221.798248 58.39071846 221.83436966 C60.68363052 221.84417058 62.97658721 221.84649804 65.26951408 221.84119797 C68.46706018 221.83414564 71.66363023 221.8513677 74.86108398 221.87402344 C76.27858192 221.86176476 76.27858192 221.86176476 77.72471619 221.84925842 C81.97142047 221.9028762 84.26517814 222.00733143 87.94044495 224.2953186 C90.41492968 226.96959725 90.84775225 227.82194437 91.03735352 231.49853516 C90.86412006 235.6993805 90.19923968 239.5273146 89.31054688 243.62255859 C89.07393089 244.76232147 89.07393089 244.76232147 88.83253479 245.92510986 C88.16305008 249.14993243 87.47760937 252.37129583 86.79223633 255.59277344 C86.29201667 257.95559383 85.80098802 260.32019255 85.31054688 262.68505859 C85.15226913 263.41319763 84.99399139 264.14133667 84.83091736 264.89154053 C84.14252132 268.21963268 83.78205488 270.10348885 84.87695312 273.38818359 C99.82262923 264.54986221 114.76600843 255.70893835 129.59799194 246.68069458 C131.31929478 245.63524296 133.04363408 244.5949726 134.76879883 243.5559082 C140.39003059 240.16054139 145.95115803 236.70594976 151.43945312 233.09912109 C163.01022971 225.61064813 172.15695835 221.00564295 185.94335938 219.89599609 C203.53364659 218.43962937 220.83740454 208.7745037 233.87695312 197.38818359 C234.53695313 196.87126953 235.19695312 196.35435547 235.87695312 195.82177734 C254.79379681 180.60439704 265.54107455 156.32515238 268.59570312 132.68115234 C270.86645717 106.09440707 263.99836723 80.62936922 247.43945312 59.42724609 C229.18373665 37.77641161 206.13621982 24.84630345 177.87695312 21.38818359 C175.13271206 21.29547772 172.41421004 21.24450533 169.67068481 21.2477417 C168.87223864 21.24477058 168.07379247 21.24179945 167.25115097 21.2387383 C164.59011198 21.23010448 161.92911826 21.22854755 159.26806641 21.22705078 C157.35375371 21.22241866 155.43944194 21.21739347 153.52513123 21.21200562 C148.33242148 21.19891335 143.13972465 21.19244228 137.94700098 21.18799496 C134.69630289 21.18505772 131.44560828 21.18095159 128.19491196 21.17649078 C118.00580078 21.16282116 107.81669761 21.15315317 97.6275779 21.14928889 C85.90110219 21.14481619 74.1747435 21.12730268 62.44830334 21.0982883 C53.36261897 21.07659566 44.27696733 21.0665805 35.19125736 21.06524777 C29.77546041 21.06420471 24.35977354 21.05840448 18.94400406 21.04042816 C13.84021628 21.02381702 8.73661977 21.02185455 3.63281441 21.03056717 C1.77260255 21.03133075 -0.08762015 21.02708597 -1.9478054 21.01710892 C-29.23854686 20.87947167 -54.05091078 27.14452214 -75.12304688 45.38818359 Z " fill="#000000" transform="translate(178.123046875,104.61181640625)"/>
</svg>
