<svg width="117" height="28" viewBox="0 0 117 28" fill="none" xmlns="http://www.w3.org/2000/svg">
<path d="M0.588 1.4H15.148L15.428 7.224H14.924C14.2333 5.208 13.4307 3.836 12.516 3.108C11.62 2.38 10.276 2.016 8.484 2.016H7.7V11.116H8.96C9.856 11.116 10.6027 10.7893 11.2 10.136C11.7973 9.48267 12.208 8.58667 12.432 7.448H12.852V15.736H12.376C12.0773 14.336 11.6573 13.3373 11.116 12.74C10.5933 12.1427 9.87467 11.844 8.96 11.844H7.7V20.384H11.172V21H0.588V20.384H2.24V2.016H0.588V1.4ZM25.6554 8.456C24.9648 8.456 24.3581 8.904 23.8354 9.8C23.3128 10.696 23.0514 11.76 23.0514 12.992V20.496H25.0394V21H16.3034V20.496H17.8434V8.176H16.3034V7.672H23.0514V10.36C23.2941 9.408 23.7608 8.68 24.4514 8.176C25.1421 7.65333 25.9261 7.392 26.8034 7.392C27.6808 7.392 28.3901 7.644 28.9314 8.148C29.4914 8.63333 29.7714 9.33333 29.7714 10.248C29.7714 11.144 29.5661 11.8347 29.1554 12.32C28.7448 12.8053 28.1101 13.048 27.2514 13.048C26.4114 13.048 25.7861 12.768 25.3754 12.208C24.9834 11.648 24.9368 10.8733 25.2354 9.884H26.2434C26.7101 8.932 26.5141 8.456 25.6554 8.456ZM34.2827 5.74C33.2934 5.74 32.5841 5.488 32.1547 4.984C31.7441 4.48 31.5387 3.85467 31.5387 3.108C31.5387 2.36133 31.7627 1.74533 32.2107 1.26C32.6774 0.774666 33.3774 0.532 34.3107 0.532C35.2441 0.532 35.9534 0.756 36.4387 1.204C36.9241 1.63333 37.1667 2.25867 37.1667 3.08C37.1667 3.88267 36.9334 4.52667 36.4667 5.012C36.0001 5.49733 35.2721 5.74 34.2827 5.74ZM30.0547 7.672H36.9147V20.496H38.4827V21H30.1667V20.496H31.7067V8.176H30.0547V7.672ZM46.4174 21.28C44.0094 21.28 42.1988 20.664 40.9854 19.432C39.7908 18.1813 39.1934 16.4547 39.1934 14.252C39.1934 12.0307 39.8654 10.332 41.2094 9.156C42.5721 7.98 44.2988 7.392 46.3894 7.392C50.6268 7.392 52.6614 9.52 52.4934 13.776H44.5974V14.868C44.5974 16.6973 44.8308 18.0787 45.2974 19.012C45.7641 19.9453 46.5761 20.412 47.7334 20.412C49.8988 20.412 51.3174 19.2547 51.9894 16.94L52.4934 17.024C52.1388 18.368 51.4948 19.4133 50.5614 20.16C49.6468 20.9067 48.2654 21.28 46.4174 21.28ZM44.6254 13.216H47.5094V11.844C47.5094 10.332 47.4161 9.30533 47.2294 8.764C47.0614 8.204 46.7068 7.924 46.1654 7.924C45.6428 7.924 45.2508 8.22267 44.9894 8.82C44.7468 9.39867 44.6254 10.4067 44.6254 11.844V13.216ZM53.5469 7.672H60.2949V10.248C60.5936 9.38933 61.0509 8.69867 61.6669 8.176C62.2829 7.65333 63.2163 7.392 64.4669 7.392C67.3603 7.392 68.8069 8.95067 68.8069 12.068V20.496H70.3749V21H62.4509V20.496H63.5989V11.396C63.5989 10.276 63.5243 9.55733 63.3749 9.24C63.2256 8.904 62.9549 8.736 62.5629 8.736C61.9656 8.736 61.4336 9.128 60.9669 9.912C60.5189 10.696 60.2949 11.648 60.2949 12.768V20.496H61.4989V21H53.5469V20.496H55.0869V8.176H53.5469V7.672ZM76.4288 15.204C76.4288 17.164 76.5315 18.4707 76.7368 19.124C76.9422 19.7587 77.3155 20.076 77.8568 20.076C78.4168 20.076 78.8928 19.8333 79.2848 19.348C79.6955 18.8627 79.9008 18.144 79.9008 17.192V11.088C79.9008 10.2853 79.7422 9.604 79.4248 9.044C79.1075 8.484 78.6408 8.204 78.0248 8.204C77.4088 8.204 76.9888 8.61467 76.7648 9.436C76.5408 10.2573 76.4288 11.6947 76.4288 13.748V15.204ZM80.2648 21L79.9568 19.04C79.3222 20.5333 78.0342 21.28 76.0928 21.28C74.4875 21.28 73.2368 20.7013 72.3408 19.544C71.4635 18.3867 71.0248 16.66 71.0248 14.364C71.0248 9.716 72.8728 7.392 76.5688 7.392C78.2115 7.392 79.2942 7.84933 79.8168 8.764V0.503999H78.1088V-1.66893e-06H85.1088V20.496H86.4808V21H80.2648ZM100.226 7.672V8.176L93.5898 20.496H93.9538C95.5218 20.496 96.7538 20.0853 97.6498 19.264C98.5458 18.4427 99.2458 17.108 99.7498 15.26H100.142L99.6938 21H87.9338V20.58L94.6818 8.176H94.3738C92.4884 8.176 91.1724 8.484 90.4258 9.1C89.6978 9.716 89.0444 11.032 88.4658 13.048H88.1018L88.4658 7.672H100.226ZM101.339 8.176V7.672H109.459V8.176H107.947L110.999 17.472L114.247 8.176H112.371V7.672H116.319V8.176H114.919L109.683 23.268C109.067 25.0227 108.377 26.2453 107.611 26.936C106.846 27.6453 105.913 28 104.811 28C103.71 28 102.842 27.748 102.207 27.244C101.573 26.74 101.255 26.096 101.255 25.312C101.255 24.528 101.461 23.9307 101.871 23.52C102.282 23.1093 102.823 22.904 103.495 22.904C105.045 22.904 105.819 23.548 105.819 24.836C105.819 25.116 105.763 25.452 105.651 25.844H104.671C104.522 26.2733 104.503 26.628 104.615 26.908C104.727 27.188 104.979 27.328 105.371 27.328C106.137 27.328 106.818 26.9453 107.415 26.18C108.013 25.4333 108.582 24.2853 109.123 22.736L109.739 21H107.275L102.487 8.176H101.339Z" fill="#4B164C"/>
</svg>
