<svg width="73" height="33" viewBox="0 0 73 33" fill="none" xmlns="http://www.w3.org/2000/svg">
<path d="M12.6778 22.246V25H0.0297815V1.88H2.98778V22.246H12.6778ZM29.113 15.548V17.588C29.113 19.9907 28.4896 21.8833 27.243 23.266C26.019 24.6487 24.2623 25.34 21.973 25.34C19.7063 25.34 17.9496 24.6487 16.703 23.266C15.4563 21.8833 14.833 19.9907 14.833 17.588V15.548C14.833 13.1907 15.445 11.3207 16.669 9.938C17.9156 8.53267 19.6836 7.83 21.973 7.83C24.2623 7.83 26.019 8.53267 27.243 9.938C28.4896 11.3207 29.113 13.1907 29.113 15.548ZM26.223 15.548C26.223 13.9387 25.8603 12.6807 25.135 11.774C24.4096 10.8447 23.3556 10.38 21.973 10.38C20.613 10.38 19.559 10.8447 18.811 11.774C18.0856 12.6807 17.723 13.9387 17.723 15.548V17.588C17.723 19.2653 18.0856 20.5573 18.811 21.464C19.559 22.3707 20.613 22.824 21.973 22.824C23.3556 22.824 24.4096 22.3707 25.135 21.464C25.8603 20.5573 26.223 19.2653 26.223 17.588V15.548ZM47.1435 27.108C47.1435 28.7627 46.4635 30.0887 45.1035 31.086C43.7662 32.0833 41.9188 32.582 39.5615 32.582C38.3828 32.582 37.1475 32.4233 35.8555 32.106C34.5862 31.7887 33.3848 31.2787 32.2515 30.576L33.2035 28.4C34.3368 29.0347 35.4248 29.4767 36.4675 29.726C37.5328 29.998 38.5642 30.134 39.5615 30.134C41.1028 30.134 42.2928 29.8847 43.1315 29.386C43.9702 28.8873 44.3895 28.2187 44.3895 27.38C44.3895 26.768 44.1855 26.292 43.7775 25.952C43.3695 25.6347 42.7122 25.476 41.8055 25.476H37.8955C36.4222 25.476 35.3568 25.1247 34.6995 24.422C34.0422 23.7193 33.7135 22.9487 33.7135 22.11C33.7135 21.5207 33.8495 20.9427 34.1215 20.376C34.3935 19.7867 34.7788 19.2087 35.2775 18.642C34.4842 18.166 33.8495 17.52 33.3735 16.704C32.8975 15.8653 32.6595 14.8567 32.6595 13.678C32.6595 12.386 32.9315 11.3093 33.4755 10.448C34.0422 9.58667 34.7902 8.94067 35.7195 8.51C36.6488 8.05667 37.6915 7.83 38.8475 7.83H39.4255C40.2188 7.83 40.9442 7.94333 41.6015 8.17H47.6535V10.652L43.9815 10.142C44.4575 10.55 44.8428 11.06 45.1375 11.672C45.4322 12.2613 45.5795 12.9867 45.5795 13.848C45.5795 15.072 45.2962 16.1033 44.7295 16.942C44.1855 17.7807 43.4488 18.4267 42.5195 18.88C41.5902 19.3107 40.5588 19.526 39.4255 19.526H38.8475C38.5528 19.526 38.2695 19.5147 37.9975 19.492C37.7255 19.4467 37.4535 19.4013 37.1815 19.356C36.5242 20.0813 36.1955 20.7953 36.1955 21.498C36.1955 22.4047 36.8302 22.858 38.0995 22.858H41.9075C43.5395 22.858 44.8202 23.2207 45.7495 23.946C46.6788 24.6713 47.1435 25.7253 47.1435 27.108ZM39.4255 17.112C40.3095 17.112 41.0915 16.8287 41.7715 16.262C42.4515 15.6953 42.7915 14.834 42.7915 13.678C42.7915 12.5447 42.4515 11.6947 41.7715 11.128C41.0915 10.5387 40.3095 10.244 39.4255 10.244H38.8475C37.9408 10.244 37.1475 10.5387 36.4675 11.128C35.7875 11.6947 35.4475 12.5447 35.4475 13.678C35.4475 14.834 35.7875 15.6953 36.4675 16.262C37.1475 16.8287 37.9408 17.112 38.8475 17.112H39.4255ZM53.8016 4.056H50.6736V0.928H53.8016V4.056ZM53.6316 25H50.8436V8.17H53.6316V25ZM67.2344 10.448C66.5997 10.448 65.8517 10.6067 64.9904 10.924C64.1517 11.2413 63.1317 11.8873 61.9304 12.862V25H59.1424V8.17H61.7944V10.516C62.9957 9.496 64.0837 8.79333 65.0584 8.408C66.0557 8.02267 67.0077 7.83 67.9144 7.83C69.4784 7.83 70.6684 8.32867 71.4844 9.326C72.3231 10.3007 72.7424 11.6947 72.7424 13.508V25H69.9544V13.916C69.9544 11.604 69.0477 10.448 67.2344 10.448Z" fill="#1C1C1C"/>
</svg>
