<?xml version="1.0" encoding="UTF-8"?>
<svg version="1.1" xmlns="http://www.w3.org/2000/svg" width="512" height="512">
<path d="M0 0 C0.72767578 0.16097168 1.45535156 0.32194336 2.20507812 0.48779297 C18.79357111 4.29145403 35.26765463 10.7055202 49.2956543 20.43261719 C51.13416393 21.70793897 51.13416393 21.70793897 54 23 C56.58440497 22.61093228 56.58440497 22.61093228 59 21 C60.08410156 20.37867187 61.16820312 19.75734375 62.28515625 19.1171875 C62.8874707 18.75850586 63.48978516 18.39982422 64.11035156 18.03027344 C80.03294347 8.60734886 96.94198941 2.78061798 115 -1 C116.11632812 -1.24621094 117.23265625 -1.49242187 118.3828125 -1.74609375 C153.72217429 -8.16740636 191.38453288 0.00918439 221.20947266 19.74804688 C226.48024255 23.43341748 231.2600748 27.6656299 236 32 C236.79921875 32.71671875 237.5984375 33.4334375 238.421875 34.171875 C265.65782763 59.86252535 277.9096033 98.64874052 279.28125 135.203125 C280.80368394 203.49516165 244.306568 259.48631157 198.71728516 307.21240234 C193.05800998 313.1033908 187.32855542 318.85072368 181.1171875 324.1640625 C178.59400545 326.3520617 176.14445481 328.61293113 173.6875 330.875 C169.27646827 334.89380593 164.76264642 338.72865324 160.1171875 342.47265625 C157.78762058 344.35047916 155.48742603 346.26024117 153.1953125 348.18359375 C143.53489975 356.26829195 133.59975408 363.85656107 123.40283203 371.25 C121.01779487 372.98703987 118.64558552 374.74014545 116.27734375 376.5 C101.76795724 387.27943232 87.0201487 397.6936572 72 407.75 C71.25226318 408.25160645 70.50452637 408.75321289 69.73413086 409.27001953 C69.03811768 409.73263184 68.34210449 410.19524414 67.625 410.671875 C67.01914062 411.0750293 66.41328125 411.47818359 65.7890625 411.89355469 C60.47361109 415.18089445 56.22489366 416.10455472 50 415 C42.79311578 411.84278974 36.49765898 407.02977372 30.21875 402.34765625 C26.18765258 399.40749903 22.06593589 396.61352447 17.9375 393.8125 C2.92432007 383.58580881 -11.64808482 372.87752476 -25.91748047 361.63720703 C-27.86792066 360.10383635 -29.82492564 358.57941765 -31.78515625 357.05859375 C-38.07711491 352.1672335 -44.25251072 347.16888256 -50.30883789 341.98803711 C-53.74045661 339.0527334 -57.22521729 336.19874804 -60.75 333.375 C-65.08031021 329.85544453 -69.0109199 326.09593407 -72.90234375 322.1015625 C-74.78703065 320.21336594 -76.71617096 318.4738718 -78.75 316.75 C-86.72508008 309.89366863 -94.29631863 302.27480525 -101.08984375 294.24609375 C-102.6416553 292.42136647 -104.21807506 290.63119505 -105.81640625 288.84765625 C-146.50691902 243.17105232 -172.03177575 188.39902612 -168.87548828 126.56054688 C-166.19090869 87.89573926 -149.00372334 51.67391183 -119.76953125 26.21484375 C-86.37781143 -0.48911272 -41.55641422 -9.39966512 0 0 Z M-108 61 C-111.25462649 64.84400597 -114.1822576 68.82695564 -117 73 C-117.61617187 73.91136719 -118.23234375 74.82273438 -118.8671875 75.76171875 C-129.23174797 92.27591843 -135.31524642 113.51305423 -136 133 C-136.0515625 134.26199219 -136.103125 135.52398437 -136.15625 136.82421875 C-136.87678428 163.13562948 -130.51879439 187.48978893 -119 211 C-118.51660156 211.98758301 -118.51660156 211.98758301 -118.0234375 212.99511719 C-106.82102249 235.54794659 -90.96365423 255.52606813 -74 274 C-73.52095215 274.52416504 -73.0419043 275.04833008 -72.54833984 275.58837891 C-65.07276282 283.7670925 -57.62900161 291.81844659 -49.22265625 299.05859375 C-46.67023117 301.28804061 -44.18112486 303.58001382 -41.6875 305.875 C-36.28523429 310.79624205 -30.68694329 315.4139906 -25 320 C-23.81673451 320.97407866 -22.63449947 321.94941 -21.453125 322.92578125 C-1.78083659 339.1361092 18.95964212 353.98205637 39.8125 368.625 C41.07610352 369.51360718 41.07610352 369.51360718 42.36523438 370.42016602 C43.9119962 371.50186268 45.4638745 372.57629881 47.02197266 373.64160156 C48.62187695 374.74032626 50.19611682 375.87636282 51.76171875 377.0234375 C53.99490463 378.26615085 53.99490463 378.26615085 56.484375 377.3984375 C93.3804031 356.88791256 128.24923533 327.31929253 159.0859375 298.69140625 C160.99152575 296.93141925 162.91293144 295.18836643 164.8515625 293.46484375 C190.33225125 270.69705852 212.40253381 243.44533142 228 213 C228.48823242 212.06027344 228.48823242 212.06027344 228.98632812 211.1015625 C237.05405949 195.40401421 242.50525311 178.4632282 245 161 C245.19529297 159.72576172 245.19529297 159.72576172 245.39453125 158.42578125 C249.34863458 127.37288973 242.3547673 92.54462563 223.046875 67.51171875 C222.37140625 66.68285156 221.6959375 65.85398438 221 65 C219.98679687 63.74123047 219.98679687 63.74123047 218.953125 62.45703125 C205.25556635 46.33490474 187.19378477 37.2614608 167 32 C165.60007812 31.63068359 165.60007812 31.63068359 164.171875 31.25390625 C146.74254098 27.55909129 128.05075656 29.48500216 111 34 C109.73414063 34.32742187 108.46828125 34.65484375 107.1640625 34.9921875 C92.51360028 39.3460125 78.04758144 46.97227147 66.05859375 56.44140625 C61.6503625 59.77894755 58.19377847 60.56199659 52.7109375 60.44140625 C46.94651594 59.50281888 42.44712853 55.85909395 37.88671875 52.39453125 C24.06092939 42.05588592 7.73114694 35.7540322 -9 32 C-9.97066406 31.75636719 -10.94132812 31.51273438 -11.94140625 31.26171875 C-46.76250421 23.81091613 -83.53099462 35.59848679 -108 61 Z " fill="#000000" transform="translate(201,50)"/>
<path d="M0 0 C4.64305954 4.88116515 5.35728013 8.96700606 5.28125 15.49609375 C4.72745653 20.42639397 1.98376992 23.11220763 -1.5625 26.3125 C-5.78263688 29.23413322 -8.99248134 29.05550505 -14 28.9375 C-25.30519227 28.83552893 -36.11114551 30.09143085 -45.00390625 37.71875 C-50.75566781 43.78108183 -53.93106208 51.07951736 -56.171875 59.05078125 C-59.99121873 72.63604185 -59.99121873 72.63604185 -67 77 C-71.37821282 79.18910641 -77.53523366 78.7466263 -82.140625 77.3515625 C-86.63634192 75.06461085 -89.44192315 71.7292215 -91 67 C-93.81637897 52.86496594 -84.87596305 34.82060666 -77.27734375 23.4140625 C-75.60431266 21.18081372 -73.85393481 19.08466469 -72 17 C-71.43023437 16.32582031 -70.86046875 15.65164062 -70.2734375 14.95703125 C-55.98254858 -0.76294656 -19.1990094 -14.23374834 0 0 Z " fill="#000000" transform="translate(188,115)"/>
</svg>
