<?xml version="1.0" encoding="UTF-8"?>
<svg version="1.1" xmlns="http://www.w3.org/2000/svg" width="355" height="156">
<path d="M0 0 C1.58912958 0.00113916 1.58912958 0.00113916 3.21036279 0.00230134 C4.43004995 -0.00168076 5.6497371 -0.00566286 6.90638447 -0.00976562 C8.27215822 -0.00405881 9.63793122 0.00183239 11.00370347 0.00788796 C12.44498568 0.00701655 13.88626759 0.00526676 15.32754779 0.00270963 C19.30221855 -0.00178064 23.27678233 0.00626269 27.25143945 0.01626575 C31.53228961 0.02487389 35.81313336 0.02198197 40.09398973 0.0204612 C47.51555511 0.01941067 54.93708542 0.02570475 62.35864198 0.03693688 C73.08906437 0.05316626 83.81946975 0.05839725 94.54990308 0.06091286 C111.95780181 0.065294 129.36568184 0.07861444 146.77357042 0.09751809 C163.68730644 0.11586607 180.60103739 0.13002786 197.51478136 0.13853371 C199.07768537 0.13932188 199.07768537 0.13932188 200.6721632 0.14012598 C205.89906277 0.14273598 211.12596237 0.14526341 216.352862 0.14774978 C259.73985954 0.16849532 303.1268225 0.20537208 346.51380479 0.24839699 C346.51380479 46.11839699 346.51380479 91.98839699 346.51380479 139.24839699 C340.51380479 142.24839699 340.51380479 142.24839699 337.51380479 143.24839699 C337.18380479 143.90839699 336.85380479 144.56839699 336.51380479 145.24839699 C334.69349229 146.21324074 334.69349229 146.21324074 332.38880479 147.18589699 C329.65856113 148.33952108 326.98981115 149.50525662 324.32630479 150.81089699 C306.12749147 158.50231232 286.81045711 156.25128046 268.07630479 152.62339699 C266.68371877 152.35746828 265.2910573 152.09193441 263.89832628 151.82676613 C260.19808456 151.12049691 256.49928357 150.40696548 252.80091417 149.69096291 C250.506204 149.24692621 248.21121574 148.80435385 245.91614854 148.36216652 C230.1673229 145.32642258 214.42814275 142.24557139 198.70423448 139.08311379 C189.64287463 137.26452268 180.56974091 135.50906312 171.49476182 133.7598716 C163.47232638 132.21259165 155.45284033 130.65092042 147.43567979 129.07652199 C127.55377559 125.17288805 107.66794774 121.30577959 87.74817979 117.59995949 C76.65999715 115.53557427 65.58685816 113.3922184 54.51380479 111.24839699 C54.51380479 110.58839699 54.51380479 109.92839699 54.51380479 109.24839699 C53.64755479 109.55777199 53.64755479 109.55777199 52.76380479 109.87339699 C49.91357963 110.34843452 48.98590234 109.67172588 46.51380479 108.24839699 C45.79192979 107.98671731 45.07005479 107.72503762 44.32630479 107.45542824 C40.75698798 105.92359645 37.679726 103.89154829 34.45130479 101.74839699 C30.8816499 99.39370367 27.35145791 97.14526902 23.51380479 95.24839699 C21.26380479 93.24839699 21.26380479 93.24839699 19.51380479 91.24839699 C19.51380479 90.58839699 19.51380479 89.92839699 19.51380479 89.24839699 C18.02880479 88.75339699 18.02880479 88.75339699 16.51380479 88.24839699 C14.79505479 86.06870949 14.79505479 86.06870949 13.01380479 83.37339699 C10.65883639 79.79401314 10.65883639 79.79401314 7.83802354 76.59605324 C5.9685321 74.69347346 5.86301851 72.8325785 5.51380479 70.24839699 C4.02880479 70.74339699 4.02880479 70.74339699 2.51380479 71.24839699 C2.41067979 70.50589699 2.30755479 69.76339699 2.20130479 68.99839699 C1.72213514 66.24728144 1.72213514 66.24728144 0.07630479 64.49839699 C-1.91824384 61.62624696 -2.33698214 58.97027805 -2.95885146 55.56480324 C-3.42469745 53.20233745 -3.42469745 53.20233745 -4.47447646 50.92417824 C-8.34113689 40.69768251 -9.48231576 23.82042236 -6.48619521 13.24839699 C-6.00136682 10.40461366 -5.53828377 7.55812869 -5.08385146 4.70933449 C-4.271535 1.36450204 -3.47199116 0.34688835 0 0 Z " fill="#FCF6FC" transform="translate(8.48619520664215,-0.24839699268341064)"/>
<path d="M0 0 C0.78375 0.04125 1.5675 0.0825 2.375 0.125 C1.92771306 4.22513027 1.40720246 8.08741023 0.3125 12.0625 C-4.25626589 31.91773822 1.45448251 54.70496737 12.015625 71.703125 C27.12806257 94.46282013 49.74784711 103.40105536 75.51334667 108.61109161 C79.89154954 109.47913075 84.27357666 110.32674828 88.65625 111.171875 C90.6002977 111.55015694 92.5442656 111.9288492 94.48815918 112.30792236 C99.58799591 113.30144479 104.68876348 114.2900981 109.78979492 115.27746582 C117.8351181 116.83566227 125.87894952 118.40155545 133.92294312 119.96659851 C135.91104003 120.35329889 137.89917885 120.73978384 139.88735962 121.12605286 C155.65740971 124.19008196 171.4154583 127.31081889 187.16320801 130.48748779 C196.88652712 132.44630041 206.6214176 134.32244139 216.375 136.125 C225.19404094 137.75707062 234.0000837 139.43511836 242.79296875 141.203125 C243.68678253 141.38282837 244.58059631 141.56253174 245.50149536 141.74768066 C249.88165266 142.62984402 254.26072693 143.51708107 258.63867188 144.41015625 C291.01609609 150.98704112 316.04238662 150.16977811 344.125 131.6875 C345.23875 130.9140625 345.23875 130.9140625 346.375 130.125 C346.375 133.095 346.375 136.065 346.375 139.125 C343.3923094 140.64948631 340.556798 142.06440067 337.375 143.125 C337.045 143.785 336.715 144.445 336.375 145.125 C334.5546875 146.08984375 334.5546875 146.08984375 332.25 147.0625 C329.51975633 148.21612408 326.85100636 149.38185963 324.1875 150.6875 C305.98868667 158.37891533 286.67165231 156.12788346 267.9375 152.5 C266.54491398 152.23407128 265.15225251 151.96853741 263.75952148 151.70336914 C260.05927976 150.99709991 256.36047878 150.28356849 252.66210938 149.56756592 C250.36739921 149.12352921 248.07241095 148.68095686 245.77734375 148.23876953 C230.0285181 145.20302559 214.28933796 142.1221744 198.56542969 138.9597168 C189.50406984 137.14112568 180.43093612 135.38566613 171.35595703 133.63647461 C163.33352159 132.08919466 155.31403553 130.52752343 147.296875 128.953125 C127.4149708 125.04949106 107.52914294 121.1823826 87.609375 117.4765625 C76.52119236 115.41217728 65.44805337 113.2688214 54.375 111.125 C54.375 110.465 54.375 109.805 54.375 109.125 C53.50875 109.434375 53.50875 109.434375 52.625 109.75 C49.77477484 110.22503753 48.84709755 109.54832889 46.375 108.125 C45.653125 107.86332031 44.93125 107.60164063 44.1875 107.33203125 C40.61818319 105.80019945 37.54092121 103.7681513 34.3125 101.625 C30.7428451 99.27030667 27.21265312 97.02187202 23.375 95.125 C21.125 93.125 21.125 93.125 19.375 91.125 C19.375 90.465 19.375 89.805 19.375 89.125 C17.89 88.63 17.89 88.63 16.375 88.125 C14.65625 85.9453125 14.65625 85.9453125 12.875 83.25 C10.5200316 79.67061615 10.5200316 79.67061615 7.69921875 76.47265625 C5.82972731 74.57007646 5.72421372 72.70918151 5.375 70.125 C3.89 70.62 3.89 70.62 2.375 71.125 C2.271875 70.3825 2.16875 69.64 2.0625 68.875 C1.58333035 66.12388444 1.58333035 66.12388444 -0.0625 64.375 C-2.05704863 61.50284997 -2.47578694 58.84688106 -3.09765625 55.44140625 C-3.56350224 53.07894045 -3.56350224 53.07894045 -4.61328125 50.80078125 C-8.47994168 40.57428551 -9.62112055 23.69702537 -6.625 13.125 C-6.14017161 10.28121667 -5.67708857 7.43473169 -5.22265625 4.5859375 C-4.38501876 1.13684195 -3.59390199 0.17113819 0 0 Z " fill="#251A25" transform="translate(8.625,-0.125)"/>
<path d="M0 0 C0 2.97 0 5.94 0 9 C-2.9826906 10.52448631 -5.818202 11.93940067 -9 13 C-9.33 13.66 -9.66 14.32 -10 15 C-11.8203125 15.96484375 -11.8203125 15.96484375 -14.125 16.9375 C-16.85524367 18.09112408 -19.52399364 19.25685963 -22.1875 20.5625 C-40.53746649 28.31779761 -59.99278062 25.953126 -78.875 22.3125 C-80.26754457 22.04783774 -81.66012329 21.78335503 -83.05273438 21.51904297 C-97.0688397 18.84460879 -111.03997927 15.95210774 -125 13 C-125 12.01 -125 11.02 -125 10 C-122.06818771 9.10347347 -120.03407631 8.96897553 -117.03613281 9.57324219 C-116.26722717 9.72380066 -115.49832153 9.87435913 -114.70611572 10.02947998 C-113.46713531 10.28559052 -113.46713531 10.28559052 -112.203125 10.546875 C-111.33669373 10.71874329 -110.47026245 10.89061157 -109.57757568 11.06768799 C-106.80003536 11.620406 -104.02503804 12.18486628 -101.25 12.75 C-99.42854743 13.11539187 -97.60693408 13.47998327 -95.78515625 13.84375 C-94.89232941 14.02221466 -93.99950256 14.20067932 -93.07962036 14.384552 C-92.19225189 14.56186859 -91.30488342 14.73918518 -90.390625 14.921875 C-88.61310792 15.27712811 -86.83560124 15.63243326 -85.05810547 15.98779297 C-83.78117828 16.24275543 -83.78117828 16.24275543 -82.47845459 16.50286865 C-80.87885142 16.82371895 -79.27973075 17.1469887 -77.68121338 17.47320557 C-69.56441502 19.12722266 -61.68711732 20.51518452 -53.375 20.375 C-52.49328125 20.36774902 -51.6115625 20.36049805 -50.703125 20.35302734 C-41.55890288 20.1614119 -32.36461228 18.9134436 -24 15 C-23.67 14.34 -23.34 13.68 -23 13 C-19.75707408 11.30559926 -16.48053525 9.73272483 -13.16601562 8.18554688 C-9.99806371 6.66153677 -2.80122093 0 0 0 Z " fill="#211E21" transform="translate(355,130)"/>
<path d="M0 0 C1.47314163 0.28401924 1.47314163 0.28401924 2.9760437 0.57377625 C12.3568342 2.38236858 21.73763736 4.19089523 31.11845207 5.99936199 C36.87949399 7.10999857 42.64053123 8.22065937 48.40154648 9.33143425 C50.27088846 9.69181812 52.1402452 10.05212548 54.00961685 10.41235542 C58.59475868 11.29598126 63.17967362 12.18074936 67.76409912 13.06808472 C75.65844298 14.59482745 83.55381365 16.11096754 91.46191406 17.56494141 C92.69386505 17.79373489 93.92581604 18.02252838 95.19509888 18.258255 C97.41646864 18.66940176 99.63912444 19.07368624 101.86325073 19.46965027 C102.80959381 19.64571304 103.75593689 19.82177582 104.73095703 20.00317383 C105.54049835 20.1492659 106.35003967 20.29535797 107.18411255 20.44587708 C107.78335541 20.62873764 108.38259827 20.81159821 109 21 C109.495 21.99 109.495 21.99 110 23 C109.67 23.66 109.34 24.32 109 25 C101.15888642 24.44696462 93.57794662 23.29436181 85.875 21.75 C84.73450195 21.52602539 83.59400391 21.30205078 82.41894531 21.07128906 C78.94467313 20.38718079 75.47210284 19.6950267 72 19 C70.56672363 18.71382812 70.56672363 18.71382812 69.10449219 18.421875 C65.35318237 17.67241603 61.60202212 16.92237151 57.85253906 16.16381836 C51.38543453 14.86009569 44.91208138 13.59470855 38.43273926 12.35336304 C34.22345842 11.54670056 30.01512716 10.7351338 25.8067627 9.92370605 C23.69061447 9.517201 21.573996 9.11313605 19.45690918 8.71154785 C16.46224624 8.14325975 13.46930402 7.56659009 10.4765625 6.98828125 C9.56518524 6.81760635 8.65380798 6.64693146 7.71481323 6.47108459 C6.45340012 6.22496681 6.45340012 6.22496681 5.16650391 5.97387695 C4.4313858 5.83351517 3.6962677 5.69315338 2.93887329 5.54853821 C1 5 1 5 -2 3 C-1.34 2.01 -0.68 1.02 0 0 Z " fill="#121112" transform="translate(120,117)"/>
<path d="M0 0 C1.14555862 0.24433777 2.29111725 0.48867554 3.47138977 0.74041748 C14.26230989 3.03268381 25.06895773 5.22394533 35.89830589 7.32672882 C38.58686965 7.84878559 41.2750728 8.37266853 43.96321106 8.89691162 C48.74290372 9.82875881 53.52288895 10.759095 58.30297852 11.68890381 C66.77915758 13.33768743 75.25499792 14.98820465 83.73046875 16.640625 C84.65521877 16.82084702 85.5799688 17.00106903 86.53274155 17.18675232 C101.9157866 20.18606116 117.28758771 23.23951583 132.65116882 26.3369751 C142.42024858 28.30374631 152.2007616 30.18902353 162 32 C170.81904157 33.63206757 179.62508371 35.31011836 188.41796875 37.078125 C189.31178253 37.25782837 190.20559631 37.43753174 191.12649536 37.62268066 C195.50665266 38.50484402 199.88572693 39.39208107 204.26367188 40.28515625 C226.83869923 44.87086248 246.55418224 46.74723981 269 40 C266.54819801 42.93560239 264.35674131 43.7013459 260.6875 44.625 C259.76324219 44.86476562 258.83898437 45.10453125 257.88671875 45.3515625 C236.30068955 50.20038638 215.60956011 44.96557208 194.44468689 40.50715637 C188.91296713 39.35439521 183.37360133 38.37115883 177.79296875 37.48828125 C171.98966228 36.56665913 166.29404587 35.43384655 160.5859375 34.0390625 C151.33009009 31.77775952 141.99914416 30.06683148 132.625 28.375 C120.05430971 26.09470629 107.51116664 23.7221197 94.99609375 21.15234375 C92.65353319 20.67569763 90.31092284 20.19929616 87.96826172 19.72314453 C84.52448843 19.0229286 81.08254579 18.31673235 77.644104 17.59075928 C74.44418309 16.91556163 71.24045162 16.26240464 68.03515625 15.61328125 C67.07669296 15.40444809 66.11822968 15.19561493 65.13072205 14.98045349 C64.24719559 14.80554886 63.36366913 14.63064423 62.45336914 14.45043945 C61.68593887 14.29025833 60.91850861 14.13007721 60.12782288 13.96504211 C57.28003932 14.01182819 56.08577572 15.14866169 54 17 C54 16.01 54 15.02 54 14 C46.84757022 12.078859 39.66645034 10.49134979 32.40234375 9.0625 C31.55467438 8.89468018 30.707005 8.72686035 29.83364868 8.55395508 C26.3003057 7.85560607 22.76668184 7.15939191 19.22973633 6.47949219 C16.61844352 5.97587048 14.01033517 5.45790951 11.40234375 4.9375 C10.60239487 4.78740479 9.80244598 4.63730957 8.97825623 4.48266602 C5.01707658 3.68035822 2.67487644 3.03155885 0 0 Z " fill="#512552" transform="translate(63,104)"/>
<path d="M0 0 C1.6102002 0.28967651 1.6102002 0.28967651 3.25292969 0.58520508 C5.01878418 0.91427856 5.01878418 0.91427856 6.8203125 1.25 C8.03364258 1.47131592 9.24697266 1.69263184 10.49707031 1.9206543 C26.67189005 4.89536876 42.80930185 8.07265478 58.9453125 11.25 C58.9453125 12.57 58.9453125 13.89 58.9453125 15.25 C50.97620729 14.74148269 43.31696687 13.71185003 35.5078125 12.0625 C33.93978882 11.74019409 33.93978882 11.74019409 32.34008789 11.41137695 C30.08577309 10.94700499 27.83212842 10.47937012 25.57910156 10.00878906 C21.67910693 9.19441233 17.77727327 8.38930484 13.875 7.5859375 C6.8968677 6.14816368 -0.07941393 4.70158457 -7.0546875 3.25 C-7.0546875 2.26 -7.0546875 1.27 -7.0546875 0.25 C-4.35899677 -1.09784537 -2.95713482 -0.53905306 0 0 Z " fill="#181818" transform="translate(237.0546875,139.75)"/>
<path d="M0 0 C0.78375 0.04125 1.5675 0.0825 2.375 0.125 C1.92771306 4.22513027 1.40720246 8.08741023 0.3125 12.0625 C-2.11848432 22.5302459 -0.9038229 34.55187495 0.375 45.125 C-0.285 45.125 -0.945 45.125 -1.625 45.125 C-2.285 40.175 -2.945 35.225 -3.625 30.125 C-4.615 30.455 -5.605 30.785 -6.625 31.125 C-7.638483 24.91741665 -8.19654996 19.24401366 -6.625 13.125 C-6.14017161 10.28121667 -5.67708857 7.43473169 -5.22265625 4.5859375 C-4.38501876 1.13684195 -3.59390199 0.17113819 0 0 Z " fill="#1A1A1A" transform="translate(8.625,-0.125)"/>
<path d="M0 0 C8.64494949 0.63489066 17.00647318 2.2415366 25.48828125 3.95629883 C27.88912427 4.44034768 30.29203788 4.91295561 32.6953125 5.38476562 C34.23190732 5.69202658 35.76837071 5.99994565 37.3046875 6.30859375 C38.01825409 6.44825058 38.73182068 6.58790741 39.4670105 6.73179626 C42.9129559 7.43716459 45.95473229 8.20719774 49 10 C48.34 10 47.68 10 47 10 C47 10.66 47 11.32 47 12 C43.62855022 13.12381659 42.32753768 12.85548355 38.90625 12.14453125 C37.88394287 11.93594482 36.86163574 11.7273584 35.80834961 11.51245117 C34.71659424 11.28146729 33.62483887 11.0504834 32.5 10.8125 C31.38826416 10.58344971 30.27652832 10.35439941 29.13110352 10.1184082 C25.75236054 9.42020081 22.37602618 8.71121485 19 8 C17.04042121 7.5908745 15.08078959 7.18200194 13.12109375 6.7734375 C8.74533752 5.85848481 4.37199311 4.93276134 0 4 C0 2.68 0 1.36 0 0 Z " fill="#131313" transform="translate(70,108)"/>
<path d="M0 0 C0.96679688 0.51949219 1.93359375 1.03898437 2.9296875 1.57421875 C14.63893715 8.68752933 14.63893715 8.68752933 27.20703125 13.44140625 C27.79871094 13.62574219 28.39039062 13.81007813 29 14 C29.33 14.99 29.66 15.98 30 17 C27 19 27 19 24.3125 18.625 C23.549375 18.41875 22.78625 18.2125 22 18 C22 17.34 22 16.68 22 16 C21.4225 16.20625 20.845 16.4125 20.25 16.625 C17.39977484 17.10003753 16.47209755 16.42332889 14 15 C13.21625 14.71125 12.4325 14.4225 11.625 14.125 C8.43135169 12.75629358 5.77807571 11.08355678 3 9 C2.67 8.01 2.34 7.02 2 6 C2.66 6 3.32 6 4 6 C4 5.34 4 4.68 4 4 C2.68 3.34 1.36 2.68 0 2 C0 1.34 0 0.68 0 0 Z " fill="#322632" transform="translate(41,93)"/>
<path d="M0 0 C0.66 0.33 1.32 0.66 2 1 C2.31241371 3.54941373 2.51303421 6.00361513 2.625 8.5625 C2.66367188 9.27341797 2.70234375 9.98433594 2.7421875 10.71679688 C2.83671783 12.47742425 2.91945817 14.23867728 3 16 C3.99 16.33 4.98 16.66 6 17 C6.06058594 17.61488281 6.12117187 18.22976562 6.18359375 18.86328125 C6.26738281 19.67152344 6.35117188 20.47976562 6.4375 21.3125 C6.51871094 22.11300781 6.59992187 22.91351563 6.68359375 23.73828125 C6.95265693 26.16087179 6.95265693 26.16087179 8 29 C7.34 29 6.68 29 6 29 C6 28.34 6 27.68 6 27 C5.01 26.67 4.02 26.34 3 26 C-0.78051576 21.8633487 -1.16123236 17.36184173 -2 12 C-2.14824219 11.15953125 -2.29648437 10.3190625 -2.44921875 9.453125 C-2.62904297 8.26976562 -2.62904297 8.26976562 -2.8125 7.0625 C-2.92207031 6.35222656 -3.03164063 5.64195313 -3.14453125 4.91015625 C-3 3 -3 3 -1.51171875 1.24609375 C-1.01285156 0.83488281 -0.51398437 0.42367188 0 0 Z " fill="#040404" transform="translate(4,29)"/>
<path d="M0 0 C1.47919922 0.27553711 1.47919922 0.27553711 2.98828125 0.55664062 C4.53708984 0.85538086 4.53708984 0.85538086 6.1171875 1.16015625 C7.67759766 1.4530957 7.67759766 1.4530957 9.26953125 1.75195312 C11.84492008 2.23631524 14.41899316 2.72679013 16.9921875 3.22265625 C16.9921875 4.54265625 16.9921875 5.86265625 16.9921875 7.22265625 C8.85509245 6.50887598 0.97486822 4.89491743 -7.0078125 3.22265625 C-7.0078125 2.23265625 -7.0078125 1.24265625 -7.0078125 0.22265625 C-4.3235032 -1.1194984 -2.93319259 -0.55629515 0 0 Z " fill="#070607" transform="translate(237.0078125,139.77734375)"/>
<path d="M0 0 C0.78375 0.04125 1.5675 0.0825 2.375 0.125 C1.92771306 4.22513027 1.40720246 8.08741023 0.3125 12.0625 C-2.11848432 22.5302459 -0.9038229 34.55187495 0.375 45.125 C-0.285 45.125 -0.945 45.125 -1.625 45.125 C-2.45453189 41.50578614 -2.75349956 38.15927193 -2.7578125 34.44921875 C-2.75910156 33.37349609 -2.76039063 32.29777344 -2.76171875 31.18945312 C-2.75785156 30.07505859 -2.75398437 28.96066406 -2.75 27.8125 C-2.75386719 26.70970703 -2.75773438 25.60691406 -2.76171875 24.47070312 C-2.75470067 18.59306255 -2.51683752 12.93610002 -1.625 7.125 C-2.615 7.125 -3.605 7.125 -4.625 7.125 C-4.75 4.75 -4.75 4.75 -4.625 2.125 C-2.625 0.125 -2.625 0.125 0 0 Z " fill="#482948" transform="translate(8.625,-0.125)"/>
<path d="M0 0 C0 2.97 0 5.94 0 9 C-2.9826906 10.52448631 -5.818202 11.93940067 -9 13 C-9.33 11.68 -9.66 10.36 -10 9 C-10.5775 9.515625 -11.155 10.03125 -11.75 10.5625 C-14 12 -14 12 -16.140625 11.58984375 C-16.75421875 11.39519531 -17.3678125 11.20054687 -18 11 C-17.19175781 10.54109375 -16.38351562 10.0821875 -15.55078125 9.609375 C-13.94783203 8.68898437 -13.94783203 8.68898437 -12.3125 7.75 C-11.25675781 7.14671875 -10.20101563 6.5434375 -9.11328125 5.921875 C-6.77963455 4.48128005 -2.66941106 0 0 0 Z " fill="#422843" transform="translate(355,130)"/>
<path d="M0 0 C1.85766602 0.25366211 1.85766602 0.25366211 4.25390625 0.77734375 C5.10791016 0.96103516 5.96191406 1.14472656 6.84179688 1.33398438 C8.18854492 1.63272461 8.18854492 1.63272461 9.5625 1.9375 C10.46419922 2.13279297 11.36589844 2.32808594 12.29492188 2.52929688 C14.53111969 3.01439799 16.76600846 3.50485482 19 4 C18.67 4.99 18.34 5.98 18 7 C14.16604947 8.27798351 11.88226152 7.61613808 7.9375 6.8125 C6.68839844 6.57144531 5.43929688 6.33039063 4.15234375 6.08203125 C1 5 1 5 -0.43359375 2.88671875 C-0.62050781 2.26410156 -0.80742187 1.64148438 -1 1 C-0.67 0.67 -0.34 0.34 0 0 Z " fill="#0D0D0D" transform="translate(254,143)"/>
<path d="M0 0 C9.96940693 0.54202601 19.61136388 2.54336341 29.375 4.5 C31.0168257 4.82473178 32.65875224 5.14895409 34.30078125 5.47265625 C38.53513939 6.3087565 42.76785123 7.15278786 47 8 C48.4842749 8.29680664 48.4842749 8.29680664 49.99853516 8.59960938 C50.65901855 8.73173828 51.31950195 8.86386719 52 9 C52 9.33 52 9.66 52 10 C37.25485452 9.16155055 22.88895929 6.38938782 8.57421875 2.8671875 C5.72284032 2.17537765 2.88191414 1.5462816 0 1 C0 0.67 0 0.34 0 0 Z " fill="#552B56" transform="translate(210,134)"/>
<path d="M0 0 C1.97625073 2.9643761 3.29886906 5.78787746 4.6875 9.0625 C5.14511719 10.12597656 5.60273438 11.18945312 6.07421875 12.28515625 C6.37972656 13.18105469 6.68523438 14.07695313 7 15 C6.67 15.66 6.34 16.32 6 17 C5.01 16.01 4.02 15.02 3 14 C2.01 14.495 2.01 14.495 1 15 C-0.9375 13.875 -0.9375 13.875 -3 12 C-3.96235988 8.31095377 -4.11175253 4.79958613 -4 1 C-3.71125 1.639375 -3.4225 2.27875 -3.125 2.9375 C-2.17176549 5.15206079 -2.17176549 5.15206079 0 6 C0 5.67 0 5.34 0 5 C0 3.33333333 0 1.66666667 0 0 Z " fill="#4B3B4B" transform="translate(10,50)"/>
<path d="M0 0 C3.92734211 3.77024843 7.44406161 7.88470051 11 12 C10.01 13.485 10.01 13.485 9 15 C5.94918504 14.68276924 5.09333887 14.11098219 3.078125 11.71484375 C2.17320313 10.34005859 2.17320313 10.34005859 1.25 8.9375 C0.63640625 8.01839844 0.0228125 7.09929687 -0.609375 6.15234375 C-1.06828125 5.44207031 -1.5271875 4.73179688 -2 4 C-1.34 3.67 -0.68 3.34 0 3 C0 2.01 0 1.02 0 0 Z " fill="#090809" transform="translate(20,74)"/>
<path d="M0 0 C6.2054142 0.48320848 11.99945246 1.33318124 18 3 C15.78539127 4.98904673 14.5859083 5.97370924 11.5625 6.109375 C10.716875 5.99078125 9.87125 5.8721875 9 5.75 C8.154375 5.64171875 7.30875 5.5334375 6.4375 5.421875 C4.25442163 5.04403451 2.13877801 4.5743015 0 4 C0 2.68 0 1.36 0 0 Z " fill="#090809" transform="translate(70,108)"/>
<path d="M0 0 C0 1.32 0 2.64 0 4 C-3.78112324 5.40692958 -6.94722204 6.45030866 -11 6 C-11.66 5.34 -12.32 4.68 -13 4 C-13.99 3.67 -14.98 3.34 -16 3 C-13.89679937 2.49595192 -11.79240209 1.99689492 -9.6875 1.5 C-8.51574219 1.2215625 -7.34398437 0.943125 -6.13671875 0.65625 C-3 0 -3 0 0 0 Z " fill="#1E1E1E" transform="translate(326,148)"/>
<path d="M0 0 C0.66 0.33 1.32 0.66 2 1 C2.37890625 2.9609375 2.37890625 2.9609375 2.5625 5.375 C2.78753088 8.19477465 3.09554568 10.28663703 4 13 C3.34 13 2.68 13 2 13 C2 12.34 2 11.68 2 11 C1.01 10.67 0.02 10.34 -1 10 C-3.03450173 7.652498 -4.00787667 5.97637 -5 3 C-4.360625 2.87625 -3.72125 2.7525 -3.0625 2.625 C-2.0415625 2.315625 -2.0415625 2.315625 -1 2 C-0.67 1.34 -0.34 0.68 0 0 Z " fill="#080308" transform="translate(8,45)"/>
<path d="M0 0 C6.0546875 -0.1953125 6.0546875 -0.1953125 8 0 C8.66 0.66 9.32 1.32 10 2 C7.41073669 4.58926331 5.97294721 4.37398043 2.375 4.625 C1.37210937 4.69976562 0.36921875 4.77453125 -0.6640625 4.8515625 C-1.82035156 4.92503906 -1.82035156 4.92503906 -3 5 C-2.67 4.34 -2.34 3.68 -2 3 C-1.34 3 -0.68 3 0 3 C0 2.01 0 1.02 0 0 Z " fill="#2B2B2B" transform="translate(306,151)"/>
<path d="M0 0 C1.4375 2.0625 1.4375 2.0625 2 4 C-2.25061356 5.41687119 -4.71851625 4.19320039 -9 3 C-9 2.01 -9 1.02 -9 0 C-5.81926598 -1.59036701 -3.37573597 -0.78365299 0 0 Z " fill="#111111" transform="translate(239,140)"/>
<path d="M0 0 C0 1.32 0 2.64 0 4 C-3.3 3.67 -6.6 3.34 -10 3 C-9.67 2.01 -9.34 1.02 -9 0 C-5.93109813 -1.53445094 -3.29905734 -0.54984289 0 0 Z " fill="#0A0A0A" transform="translate(208,134)"/>
<path d="M0 0 C2.72426311 2.35277269 3.8141763 4.62496331 5 8 C4.34 8.66 3.68 9.32 3 10 C1.68 10 0.36 10 -1 10 C-1.33 8.35 -1.66 6.7 -2 5 C-1.34 4.67 -0.68 4.34 0 4 C0 2.68 0 1.36 0 0 Z " fill="#362636" transform="translate(17,67)"/>
<path d="M0 0 C2.875 -0.125 2.875 -0.125 6 0 C6.66 0.66 7.32 1.32 8 2 C7.67 2.99 7.34 3.98 7 5 C4.6568787 4.74438677 2.32156597 4.40729228 0 4 C-0.33 3.34 -0.66 2.68 -1 2 C-0.67 1.34 -0.34 0.68 0 0 Z " fill="#191719" transform="translate(209,135)"/>
<path d="M0 0 C2.64 0 5.28 0 8 0 C8 1.98 8 3.96 8 6 C4.63408134 4.55746343 2.48952921 2.66735273 0 0 Z " fill="#2C172D" transform="translate(347,0)"/>
<path d="M0 0 C0 2.31 0 4.62 0 7 C-1.32 7.33 -2.64 7.66 -4 8 C-4.66 7.01 -5.32 6.02 -6 5 C-1.125 0 -1.125 0 0 0 Z " fill="#0A0A0A" transform="translate(355,132)"/>
<path d="M0 0 C0.66 0.33 1.32 0.66 2 1 C2 2.98 2 4.96 2 7 C1.01 7.33 0.02 7.66 -1 8 C-1.66 7.34 -2.32 6.68 -3 6 C-2.63318342 3.06546739 -2.13562754 2.13562754 0 0 Z " fill="#0D0D0D" transform="translate(4,29)"/>
<path d="M0 0 C2.97 0.495 2.97 0.495 6 1 C5.67 2.32 5.34 3.64 5 5 C3.35 4.67 1.7 4.34 0 4 C0 2.68 0 1.36 0 0 Z " fill="#1C191C" transform="translate(254,143)"/>
<path d="M0 0 C0.598125 0.28875 1.19625 0.5775 1.8125 0.875 C2.1425 1.865 2.4725 2.855 2.8125 3.875 C-0.10232778 4.68467438 -1.64863217 5.09345993 -4.5 3.9375 C-5.056875 3.586875 -5.61375 3.23625 -6.1875 2.875 C-2.78900376 -0.15937164 -2.78900376 -0.15937164 0 0 Z " fill="#1D1D1D" transform="translate(90.1875,111.125)"/>
<path d="M0 0 C0.99 0.33 1.98 0.66 3 1 C2.67 1.99 2.34 2.98 2 4 C-0.375 4.125 -0.375 4.125 -3 4 C-3.66 3.34 -4.32 2.68 -5 2 C-5.99 1.67 -6.98 1.34 -8 1 C-5.2540274 -0.3729863 -3.0410953 -0.12412634 0 0 Z " fill="#050505" transform="translate(318,150)"/>
<path d="M0 0 C2.64 0.33 5.28 0.66 8 1 C7.01 1.495 7.01 1.495 6 2 C6 2.66 6 3.32 6 4 C3 5 3 5 0 4 C0 2.68 0 1.36 0 0 Z " fill="#080808" transform="translate(111,116)"/>
<path d="M0 0 C2.64 0.33 5.28 0.66 8 1 C7.34 2.32 6.68 3.64 6 5 C3.69 4.34 1.38 3.68 -1 3 C-0.67 2.01 -0.34 1.02 0 0 Z " fill="#020202" transform="translate(169,127)"/>
<path d="M0 0 C0.99 0.33 1.98 0.66 3 1 C3.33 1.99 3.66 2.98 4 4 C4.66 4.33 5.32 4.66 6 5 C5.34 5.66 4.68 6.32 4 7 C-0.875 4.375 -0.875 4.375 -2 1 C-1.34 0.67 -0.68 0.34 0 0 Z " fill="#2F2F2F" transform="translate(45,98)"/>
<path d="M0 0 C0.66 0.33 1.32 0.66 2 1 C2 2.32 2 3.64 2 5 C0.02 5 -1.96 5 -4 5 C-4 4.01 -4 3.02 -4 2 C-3.01 2 -2.02 2 -1 2 C-0.67 1.34 -0.34 0.68 0 0 Z " fill="#291929" transform="translate(8,45)"/>
<path d="" fill="#FFFFFF" transform="translate(0,0)"/>
<path d="" fill="#FFFFFF" transform="translate(0,0)"/>
<path d="" fill="#FFFFFF" transform="translate(0,0)"/>
<path d="" fill="#FFFFFF" transform="translate(0,0)"/>
</svg>
