<?xml version="1.0" encoding="UTF-8"?>
<svg version="1.1" xmlns="http://www.w3.org/2000/svg" width="512" height="512">
<path d="M0 0 C1.9017546 -0.01169993 1.9017546 -0.01169993 3.84192848 -0.02363622 C7.32217806 -0.04430634 10.8017329 -0.03428662 14.28198338 -0.01870513 C18.0503186 -0.00731305 21.81854084 -0.02489293 25.58685303 -0.03860474 C32.95360514 -0.06075855 40.32010157 -0.05607122 47.68686342 -0.04154153 C53.6775957 -0.03021819 59.66825666 -0.02873173 65.65899658 -0.03416061 C66.5138438 -0.03492678 67.36869102 -0.03569294 68.2494427 -0.03648233 C69.98641827 -0.03808106 71.72339382 -0.03970213 73.46036935 -0.04134528 C89.72197316 -0.05557976 105.9834357 -0.03924627 122.24501634 -0.01234345 C136.17757508 0.00999325 150.10992548 0.00611247 164.04248047 -0.01693726 C180.2485948 -0.04373602 196.45458552 -0.05420668 212.66071892 -0.03887594 C214.39106113 -0.03728331 216.12140336 -0.03571145 217.85174561 -0.03416061 C218.70295569 -0.03338924 219.55416578 -0.03261786 220.43117011 -0.03182311 C226.40997465 -0.02751832 232.38870035 -0.03476622 238.36749268 -0.04655838 C245.66048158 -0.06062732 252.95320165 -0.05669164 260.24616003 -0.03015466 C263.96235022 -0.01707513 267.67809329 -0.01176262 271.39427948 -0.02840042 C275.43348425 -0.04621 279.47157454 -0.02484967 283.51074219 0 C284.67020166 -0.01115361 285.82966114 -0.02230722 287.02425575 -0.03379881 C299.91037009 0.11926278 311.25046601 4.92949113 320.75537109 13.63491821 C329.5205429 23.49204745 333.9175977 34.01459953 333.88959217 47.15354347 C333.8919444 47.90565505 333.89429663 48.65776662 333.89672014 49.43266946 C333.90339449 51.96116996 333.90295239 54.48961888 333.90254211 57.01812744 C333.9058417 58.84601525 333.90956747 60.67390234 333.91368359 62.5017885 C333.92370074 67.53155487 333.92741992 72.56130931 333.9300729 77.59108424 C333.93397675 83.01321212 333.94355498 88.43533055 333.95228577 93.85745239 C333.97204697 106.95453216 333.98211555 120.05161269 333.99101356 133.14870363 C333.99539666 139.31573351 334.00076338 145.48276252 334.00600243 151.64979172 C334.02301368 172.14881779 334.03750833 192.64784333 334.04475117 213.14687538 C334.04666107 218.46629461 334.04857974 223.78571384 334.05053711 229.10513306 C334.05077726 229.76599043 334.05101741 230.42684781 334.05126484 231.10773116 C334.05891159 251.86600459 334.08058129 272.6242265 334.11206055 293.38247681 C334.14741441 316.70587588 334.16900563 340.02923762 334.17239541 363.35266435 C334.17456109 375.70105282 334.18331842 388.04935989 334.20885658 400.39772415 C334.23055335 410.912962 334.23861896 421.42809866 334.2288898 431.94335635 C334.2243423 437.30773881 334.22625776 442.67191245 334.24565125 448.03626633 C334.26326303 452.95025131 334.26230115 457.86387483 334.24675395 462.77786355 C334.2443749 464.55246504 334.24871685 466.32709143 334.2605826 468.10165484 C334.34584591 481.69884372 333.06058278 492.24790725 323.25927734 502.40444946 C312.81765919 511.7057973 302.3522538 513.5111807 288.86376953 512.83023071 C275.76430885 511.61675589 266.35996788 500.52292018 257.67700195 491.73599243 C256.58420262 490.63770804 255.49093272 489.5398917 254.39723206 488.44250488 C252.05582078 486.09143344 249.71750693 483.73734037 247.38154411 481.38085556 C243.6842271 477.65154987 239.97860677 473.93056876 236.2716217 470.21087646 C227.06941438 460.97468946 217.87663188 451.72913753 208.68865967 442.47879028 C201.53821518 435.27984388 194.38457652 428.08414464 187.22031885 420.89894116 C183.53783382 417.20496297 179.86239083 413.50416313 176.19214809 409.79802299 C173.90545435 407.49208706 171.61247975 405.19247628 169.31773949 402.89455032 C168.25855672 401.83136189 167.20194922 400.76560041 166.14818954 399.69703674 C158.88739208 392.33796625 152.80450996 386.2426026 142.13037109 385.32241821 C130.69462579 385.60965357 123.65226085 392.9183704 116.14624023 400.64224243 C115.02110894 401.77726848 113.89459934 402.91092961 112.76683044 404.04333496 C110.35292196 406.47274696 107.9486671 408.91118226 105.55156136 411.35717392 C101.75401688 415.2315115 97.93383998 419.08300396 94.11021423 422.93157959 C86.68369212 430.41256598 79.27914389 437.91507488 71.87784576 445.42100525 C62.46225663 454.96886352 53.04023956 464.51021597 43.59146398 474.02524579 C39.79928367 477.84561038 36.02000158 481.67814611 32.25050938 485.52089286 C29.89467851 487.91747294 27.52833123 490.30346314 25.15918922 492.6868782 C24.07081264 493.78612618 22.98674457 494.88966135 21.90759659 495.99797058 C11.91593065 506.25144003 2.84301877 512.81499315 -11.74462891 513.00991821 C-22.88136562 513.05577142 -31.48593521 510.14791938 -39.63525391 502.31851196 C-47.07444874 494.53624746 -50.40159787 486.9487357 -50.37884998 476.24492741 C-50.38120221 475.49456887 -50.38355444 474.74421033 -50.38597795 473.97111365 C-50.39266484 471.44253524 -50.39220982 468.91400826 -50.39179993 466.38542175 C-50.39509876 464.55982238 -50.39882437 462.73422373 -50.40294141 460.90862602 C-50.41296757 455.88046153 -50.4166792 450.85230897 -50.41933072 445.8241359 C-50.423232 440.40536054 -50.43281055 434.98659464 -50.44154358 429.56782532 C-50.46131418 416.47476664 -50.4713755 403.38170718 -50.48027137 390.28863731 C-50.48465377 384.12335736 -50.49002075 377.95807827 -50.49526024 371.792799 C-50.51227402 351.29810674 -50.52676785 330.80341501 -50.53400898 310.30871677 C-50.53591889 304.98914654 -50.53783756 299.66957632 -50.53979492 294.3500061 C-50.54015515 293.35868799 -50.54015515 293.35868799 -50.54052265 292.34734325 C-50.54865699 270.26478743 -50.57388061 248.18229216 -50.6073756 226.09976137 C-50.64045016 204.11517959 -50.65845815 182.1306262 -50.66165322 160.1460194 C-50.66381807 147.80202358 -50.67256306 135.45810922 -50.6981144 123.11413765 C-50.71982687 112.60039665 -50.72786911 102.0867569 -50.71814761 91.57299603 C-50.71360439 86.21039793 -50.71549064 80.84800872 -50.73490906 75.4854393 C-50.7525518 70.57069312 -50.75153382 65.65630803 -50.73601177 60.74155795 C-50.73363739 58.96890981 -50.73795036 57.19623658 -50.74984042 55.42362673 C-50.83931726 41.1963476 -49.17483304 29.26381041 -40.24462891 17.63491821 C-39.37837891 16.33554321 -39.37837891 16.33554321 -38.49462891 15.00991821 C-28.14335492 4.08357345 -14.7080551 -0.14148652 0 0 Z M-14.40087891 35.38882446 C-14.84431641 35.9856604 -15.28775391 36.58249634 -15.74462891 37.19741821 C-16.20869141 37.79683228 -16.67275391 38.39624634 -17.15087891 39.01382446 C-19.53230999 42.54344553 -19.38659626 45.55177427 -19.37605667 49.68180752 C-19.3781093 50.41934734 -19.38016194 51.15688717 -19.38227677 51.91677669 C-19.38797761 54.41369618 -19.38648575 56.91056106 -19.3850708 59.40748596 C-19.38765266 61.2054876 -19.39066532 63.00348867 -19.3940742 64.80148894 C-19.40216832 69.76226745 -19.40393511 74.72303151 -19.40467167 79.68381584 C-19.40651801 85.02608689 -19.41406315 90.36835037 -19.42080688 95.71061707 C-19.4344072 107.40040888 -19.44041739 119.09019727 -19.44481754 130.77999568 C-19.44757674 138.07306857 -19.45181346 145.36614012 -19.45632172 152.65921211 C-19.46851592 172.83472962 -19.47881538 193.01024606 -19.48219681 213.18576717 C-19.48241637 214.47782075 -19.48263594 215.76987433 -19.48286216 217.10108105 C-19.48308044 218.39629579 -19.48329872 219.69151054 -19.48352361 221.02597421 C-19.48396708 223.65074917 -19.48441364 226.27552412 -19.48486328 228.90029907 C-19.48508471 230.20228918 -19.48530614 231.50427928 -19.48553428 232.84572364 C-19.48948482 253.9567946 -19.50694597 275.06783109 -19.5302228 296.17888873 C-19.55390454 317.83113552 -19.56639718 339.48336499 -19.56756473 361.13562495 C-19.56848321 373.30158111 -19.57427901 385.46749237 -19.59238434 397.6334362 C-19.60774241 407.99013048 -19.61293124 418.34676596 -19.60464624 428.70346945 C-19.60072462 433.99187017 -19.60174258 439.28015234 -19.61570358 444.56853867 C-19.6283523 449.40384066 -19.62732528 454.23893393 -19.61511287 459.07423527 C-19.6131401 460.82926632 -19.61630628 462.58431172 -19.62495723 464.33932256 C-19.63592675 466.71386933 -19.62865092 469.08766329 -19.6165657 471.46218777 C-19.6241609 472.15322964 -19.63175609 472.84427152 -19.63958144 473.55625406 C-19.60857315 476.35306995 -19.53889892 478.21058401 -17.92060161 480.54415137 C-14.85610756 482.5386042 -12.80108209 482.21794332 -9.24462891 481.63491821 C-2.27749408 476.77794006 3.55726192 469.94379878 9.51074219 463.92959595 C10.56932317 462.86417031 11.62816339 461.79900219 12.6872406 460.73406982 C14.95344028 458.45462292 17.2181931 456.17375181 19.48191452 453.8918438 C23.06851693 450.27720507 26.66070294 446.66815 30.25405884 443.06022644 C31.48865248 441.82049011 32.72323914 440.58074682 33.95781898 439.34099674 C34.88465016 438.41028722 34.88465016 438.41028722 35.8302052 437.46077549 C44.18365129 429.07139621 52.53227514 420.67726175 60.87060547 412.27285767 C66.51132478 406.58753102 72.15922913 400.90944759 77.81525671 395.23934895 C80.80106021 392.24550636 83.78308864 389.2481122 86.75623703 386.24169731 C89.55315772 383.41353125 92.35943201 380.59498622 95.17288399 377.78326797 C96.19782044 376.7556553 97.21937155 375.72465195 98.23706245 374.6898632 C105.84052458 366.96433784 113.50339074 360.57917988 124.00537109 357.32241821 C124.95927734 357.0169104 125.91318359 356.71140259 126.89599609 356.39663696 C140.71666989 352.71490009 155.83394298 354.29963716 168.63037109 360.82241821 C178.09361811 366.88615818 185.89093194 375.63019069 193.77294922 383.55484009 C194.83498012 384.61879556 195.89724292 385.6825196 196.9597168 386.74603271 C199.22549391 389.01494258 201.48971563 391.28538865 203.75270081 393.55708313 C207.33018437 397.1481975 210.91157665 400.73539704 214.49353027 404.322052 C222.08379774 411.92336199 229.66978793 419.52893405 237.25537109 427.13491821 C245.47423932 435.3758322 253.6938613 443.61598659 261.9183383 451.85130358 C265.48095832 455.41890958 269.04112585 458.98893976 272.59944248 462.56083775 C274.80498172 464.77381418 277.01257096 466.98473666 279.22073364 469.19509506 C280.24637291 470.22261217 281.27114449 471.25099618 282.29499817 472.28029251 C283.68838826 473.68085879 285.08512776 475.07809049 286.48205566 476.47512817 C287.26365303 477.25894615 288.0452504 478.04276413 288.85053253 478.85033417 C291.51848762 481.34985837 292.45485185 481.61306227 296.19287109 481.88491821 C299.58532374 481.9284689 299.58532374 481.9284689 301.45443213 480.56591445 C303.45632021 477.59449269 303.13158022 475.0429334 303.13289452 471.48897839 C303.13725484 470.75287188 303.14161516 470.01676537 303.14610761 469.25835261 C303.15712514 466.77213386 303.14661194 464.28646262 303.13632202 461.80024719 C303.13977604 460.00764312 303.14453888 458.21504117 303.15050375 456.42244369 C303.16307894 451.48106348 303.15681384 446.5398561 303.1475451 441.5984751 C303.14078137 436.27524278 303.1512226 430.95204102 303.15948486 425.6288147 C303.17285391 415.19367316 303.16993013 404.75859619 303.16124694 394.32345208 C303.15448216 385.84387752 303.15354845 377.36432112 303.15681839 368.88474464 C303.15727809 367.67960131 303.15773779 366.47445798 303.15821142 365.23279515 C303.15917056 362.78481914 303.1601432 360.33684312 303.16112919 357.88886712 C303.16969265 334.91052254 303.15983454 311.9322138 303.14372809 288.9538751 C303.13032916 269.22750236 303.13264766 249.50118258 303.14648438 229.77481079 C303.16253211 206.88545621 303.1688632 183.9961331 303.15964758 161.10677367 C303.15869191 158.66669548 303.1577488 156.22661728 303.15681839 153.78653908 C303.15612415 151.98555098 303.15612415 151.98555098 303.15541589 150.14817929 C303.1528232 141.67805493 303.15720311 133.20795049 303.16425705 124.73782921 C303.17266352 114.41636993 303.17041008 104.09497912 303.15441482 93.7735277 C303.14651984 88.50500697 303.14346134 83.23660046 303.15336227 77.96808052 C303.16228456 73.14745446 303.15741701 68.32704876 303.14142962 63.50644276 C303.13807128 61.76014067 303.13979942 60.01382005 303.14705698 58.26752981 C303.15615295 55.89754737 303.14685019 53.52832402 303.13289452 51.15838146 C303.13240746 49.84085925 303.1319204 48.52333704 303.13141859 47.16588992 C302.56145132 41.81407048 300.78002633 38.65957345 297.00537109 34.88491821 C290.05662862 30.07425034 283.15019213 30.34614539 274.96463013 30.3742218 C273.78076906 30.37039625 272.59690799 30.36657071 271.37717235 30.36262923 C268.10386025 30.35411385 264.83069201 30.35452609 261.55737615 30.35880983 C258.0221764 30.36128057 254.48700285 30.35225856 250.95181274 30.34477234 C244.03082694 30.3320329 237.10987995 30.33023071 230.18888439 30.3325726 C224.56221691 30.3343568 218.93556119 30.33260394 213.30889511 30.32834816 C212.50758729 30.32775297 211.70627946 30.32715778 210.88068958 30.32654456 C209.2527419 30.32533278 207.62479422 30.32411865 205.99684654 30.32290218 C190.73500604 30.31202951 175.47318764 30.31418782 160.2113459 30.32028703 C146.25661251 30.32545571 132.30194895 30.31420154 118.34722938 30.29518881 C104.01049037 30.27580568 89.67378439 30.26755525 75.3370322 30.27131206 C67.29126556 30.27322341 59.24555834 30.27074297 51.1998024 30.25659752 C44.35018727 30.24467669 37.50066813 30.24328667 30.65105166 30.25538769 C27.15826604 30.26127152 23.66565595 30.26238968 20.17288208 30.25038528 C16.38178518 30.23993861 12.5911593 30.24800262 8.80007935 30.26069641 C7.70269475 30.25332213 6.60531016 30.24594784 5.47467148 30.23835009 C-1.60027242 30.28815135 -8.71658958 30.76519057 -14.40087891 35.38882446 Z " fill="#000000" transform="translate(114.24462890625,-0.634918212890625)"/>
</svg>
