<svg width="40" height="40" viewBox="0 0 40 40" fill="none" xmlns="http://www.w3.org/2000/svg">
<circle cx="20" cy="20" r="20" fill="white" fill-opacity="0.4"/>
<path d="M12 20.5C12 20.303 12.0388 20.108 12.1142 19.926C12.1896 19.744 12.3001 19.5786 12.4393 19.4393C12.5786 19.3001 12.744 19.1896 12.926 19.1142C13.108 19.0388 13.303 19 13.5 19C13.697 19 13.892 19.0388 14.074 19.1142C14.256 19.1896 14.4214 19.3001 14.5607 19.4393C14.6999 19.5786 14.8104 19.744 14.8858 19.926C14.9612 20.108 15 20.303 15 20.5V26.5C15 26.8978 14.842 27.2794 14.5607 27.5607C14.2794 27.842 13.8978 28 13.5 28C13.1022 28 12.7206 27.842 12.4393 27.5607C12.158 27.2794 12 26.8978 12 26.5V20.5ZM16 20.333V25.763C15.9998 26.1347 16.1032 26.499 16.2986 26.8152C16.4939 27.1314 16.7735 27.3869 17.106 27.553L17.156 27.578C17.7109 27.8553 18.3227 27.9998 18.943 28H24.359C24.8215 28.0002 25.2698 27.84 25.6276 27.5469C25.9853 27.2537 26.2303 26.8456 26.321 26.392L27.521 20.392C27.579 20.1019 27.5719 19.8025 27.5002 19.5154C27.4285 19.2284 27.294 18.9608 27.1065 18.732C26.9189 18.5032 26.6829 18.3189 26.4155 18.1923C26.148 18.0657 25.8559 18 25.56 18H22V14C22 13.4696 21.7893 12.9609 21.4142 12.5858C21.0391 12.2107 20.5304 12 20 12C19.7348 12 19.4804 12.1054 19.2929 12.2929C19.1054 12.4804 19 12.7348 19 13V13.667C19 14.5325 18.7193 15.3746 18.2 16.067L16.8 17.933C16.2807 18.6254 16 19.4675 16 20.333Z" fill="#FDF7FD"/>
</svg>
