<?xml version="1.0" encoding="UTF-8"?>
<svg version="1.1" xmlns="http://www.w3.org/2000/svg" width="512" height="512">
<path d="M0 0 C1.56711034 1.37291157 3.1239337 2.75655236 4.67749023 4.14477539 C5.2238916 4.62946289 5.77029297 5.11415039 6.33325195 5.61352539 C54.23242937 48.27698524 79.84288935 108.06007868 83.53686523 171.53979492 C83.81972042 176.77949086 83.94677939 181.90223112 83.67749023 187.14477539 C83.61585693 188.40233643 83.61585693 188.40233643 83.55297852 189.68530273 C81.23434037 233.33940693 68.53889989 277.40061276 42.67749023 313.14477539 C42.23147461 313.76449219 41.78545898 314.38420898 41.32592773 315.02270508 C35.56458855 322.99076041 29.63187714 330.60108094 22.89624023 337.77368164 C20.97550172 339.82630185 19.16503342 341.92487069 17.36499023 344.08227539 C-1.1177731 365.18092866 -26.03506072 381.44805048 -51.32250977 393.14477539 C-51.95157227 393.4419043 -52.58063477 393.7390332 -53.22875977 394.04516602 C-110.01548208 420.75121678 -175.27890703 421.87788269 -234.08422852 401.14868164 C-242.62030715 397.98530175 -250.85937925 394.10014347 -259.06860352 390.17871094 C-260.18428711 389.66691284 -260.18428711 389.66691284 -261.32250977 389.14477539 C-262.0079184 388.7451207 -262.69332703 388.345466 -263.39950562 387.93370056 C-267.79811299 386.74650687 -271.08692637 388.13054663 -275.34448242 389.48803711 C-276.24437897 389.76084503 -277.14427551 390.03365295 -278.07144165 390.31472778 C-280.0242577 390.90897815 -281.97483075 391.51063831 -283.92335892 392.11880112 C-287.01403175 393.08302971 -290.11020922 394.02718921 -293.20858765 394.96633911 C-299.79375107 396.96631578 -306.37102735 398.99146516 -312.94750977 401.01977539 C-320.54987917 403.36382306 -328.15519351 405.69731683 -335.76844406 408.00580215 C-338.80720271 408.93287567 -341.83987751 409.87818752 -344.87271118 410.82443237 C-346.7562602 411.39808558 -348.64006702 411.9708932 -350.52416992 412.54272461 C-351.35573608 412.80768738 -352.18730225 413.07265015 -353.04406738 413.34564209 C-360.41649274 415.54665323 -368.37435882 416.68247434 -375.63500977 413.58227539 C-381.43656159 410.22285524 -385.13946444 405.42402149 -387.32250977 399.14477539 C-388.14596739 391.82283671 -386.93378813 385.29280628 -384.72045898 378.34643555 C-384.30599014 376.98081985 -384.30599014 376.98081985 -383.88314819 375.58761597 C-383.28746456 373.63173164 -382.68485289 371.67794602 -382.0758934 369.72615433 C-381.11244909 366.63654287 -380.16862113 363.54151958 -379.22952271 360.44442749 C-376.89629755 352.76352401 -374.53076749 345.09265747 -372.16491699 337.42175293 C-370.16007838 330.91748738 -368.1681872 324.40953844 -366.19385147 317.8959465 C-365.26377408 314.84679119 -364.31474262 311.80395942 -363.36495972 308.76089478 C-362.79760719 306.89646998 -362.23116144 305.03176893 -361.66577148 303.16674805 C-361.39676025 302.3230365 -361.12774902 301.47932495 -360.85058594 300.61004639 C-359.44798347 295.95734329 -359.44798347 295.95734329 -360.11242676 291.21879578 C-360.51175415 290.53436905 -360.91108154 289.84994232 -361.32250977 289.14477539 C-361.65847168 288.41669678 -361.99443359 287.68861816 -362.34057617 286.93847656 C-362.69812988 286.19573486 -363.05568359 285.45299316 -363.42407227 284.68774414 C-373.08954435 264.28093055 -380.18198891 243.35995366 -384.32250977 221.14477539 C-384.56807617 219.85095947 -384.56807617 219.85095947 -384.81860352 218.53100586 C-395.32943031 160.51515095 -381.18827257 97.0584359 -348.07080078 48.43188477 C-341.27679334 38.67203942 -334.01871313 29.55772992 -325.86547852 20.89868164 C-324.07846477 18.96343634 -322.39112262 17.03886741 -320.72875977 15.00415039 C-318.78146247 12.69015426 -316.93796307 10.76555723 -314.63500977 8.83227539 C-312.45052433 6.97889496 -310.30022446 5.12373045 -308.21704102 3.15649414 C-273.89962415 -29.15267458 -226.64060429 -48.12980807 -180.32250977 -53.85522461 C-179.61078613 -53.9494873 -178.8990625 -54.04375 -178.16577148 -54.14086914 C-114.85384083 -61.61528714 -48.26184016 -41.59314931 0 0 Z M-208.32250977 -2.85522461 C-209.02649902 -2.64027344 -209.73048828 -2.42532227 -210.45581055 -2.20385742 C-237.13638235 6.13888739 -260.68817653 20.28455182 -281.18188477 39.19165039 C-282.91592235 40.77380147 -284.66950359 42.2542442 -286.51000977 43.70727539 C-290.18968497 46.89632724 -293.21640633 50.4024124 -296.32250977 54.14477539 C-296.74806152 54.64734863 -297.17361328 55.14992188 -297.61206055 55.66772461 C-331.98065132 96.38091765 -346.75597486 146.38641554 -343.10424805 199.30786133 C-342.51382461 205.32001145 -341.53694053 211.22920664 -340.32250977 217.14477539 C-340.1562207 217.96413574 -339.98993164 218.78349609 -339.81860352 219.62768555 C-335.3314856 240.94565038 -326.85026736 259.99259819 -316.41064453 279.02612305 C-311.16317836 289.24319988 -314.99847211 301.19581647 -318.26000977 311.43383789 C-318.66527881 312.75276316 -319.06880989 314.07222356 -319.47070312 315.3921814 C-320.5203685 318.8252052 -321.59070269 322.25139777 -322.66662598 325.67626953 C-324.39381628 331.18926297 -326.08577345 336.71322311 -327.78323364 342.23542404 C-328.37622414 344.15539203 -328.97711694 346.0729136 -329.578125 347.99038696 C-329.93849854 349.1494455 -330.29887207 350.30850403 -330.67016602 351.50268555 C-330.98993408 352.5227066 -331.30970215 353.54272766 -331.63916016 354.59365845 C-332.45188041 357.18757311 -332.45188041 357.18757311 -332.32250977 360.14477539 C-324.74346213 358.82145691 -317.5338808 356.78130214 -310.20922852 354.44946289 C-307.88590877 353.72600984 -305.5623329 353.00337892 -303.23852539 352.28149414 C-299.62224852 351.15298623 -296.00799826 350.01913557 -292.39794922 348.87084961 C-288.8817198 347.75526356 -285.35883175 346.66325785 -281.83422852 345.57446289 C-280.24296394 345.05890335 -280.24296394 345.05890335 -278.61955261 344.53292847 C-270.26393759 341.98133503 -260.57491626 340.03873428 -252.22094727 343.57836914 C-251.03257197 344.22129038 -249.85790271 344.89012529 -248.69750977 345.58227539 C-247.33402602 346.32128691 -245.96939177 347.05817874 -244.60375977 347.79321289 C-243.90508789 348.17960937 -243.20641602 348.56600586 -242.48657227 348.96411133 C-198.56412347 372.92721629 -146.89535496 378.1908098 -98.83813477 364.51586914 C-72.36705529 356.63864264 -47.85127304 343.66496902 -27.32250977 325.14477539 C-25.94835535 323.97711287 -24.57346122 322.81031978 -23.19750977 321.64477539 C11.86664877 290.55014423 35.97444548 244.12330916 38.80352783 197.04751587 C39.03476113 191.62231639 39.06588282 186.19918393 39.05249023 180.76977539 C39.05194641 179.93706116 39.05140259 179.10434692 39.05084229 178.24639893 C38.89170956 125.05151108 16.05701971 77.62047139 -21.11547852 40.34399414 C-33.92234952 28.13772122 -48.60497533 18.20376598 -64.32250977 10.14477539 C-65.31686035 9.62923096 -65.31686035 9.62923096 -66.33129883 9.10327148 C-109.93406948 -13.24341064 -161.61321391 -17.19732775 -208.32250977 -2.85522461 Z " fill="#000000" transform="translate(408.322509765625,75.855224609375)"/>
</svg>
