<?xml version="1.0" encoding="UTF-8"?>
<svg version="1.1" xmlns="http://www.w3.org/2000/svg" width="512" height="512">
<path d="M0 0 C1.01790619 0.00215515 2.03581238 0.0043103 3.08456421 0.00653076 C17.69363523 0.05620146 32.02575853 0.30709809 46.375 3.3125 C47.34985352 3.51117676 48.32470703 3.70985352 49.32910156 3.91455078 C88.38660539 12.08468046 124.82400319 27.71035417 156.375 52.3125 C157.25929688 52.98539063 158.14359375 53.65828125 159.0546875 54.3515625 C174.64162389 66.45260257 189.26666068 80.75087979 201.375 96.3125 C202.15101563 97.2715625 202.92703125 98.230625 203.7265625 99.21875 C230.41975282 132.77590354 247.80256651 174.00386508 254.375 216.3125 C254.54330259 217.38746703 254.71160519 218.46243406 254.88500786 219.56997585 C256.7699241 233.31648764 256.64212566 247.00052204 256.60205078 260.85375977 C256.60036637 263.60500192 256.60171737 266.35624071 256.60293579 269.10748291 C256.60397741 274.99819844 256.59777717 280.88886918 256.58646011 286.77957344 C256.57010895 295.29622001 256.56498735 303.81284523 256.56248413 312.32950579 C256.558122 326.15189305 256.5448534 339.9742565 256.52587891 353.79663086 C256.50748155 367.21264529 256.49334399 380.62865322 256.48486328 394.04467773 C256.48407511 395.28803593 256.48407511 395.28803593 256.48327102 396.55651248 C256.48066068 400.71546754 256.47813333 404.87442264 256.47564721 409.03337777 C256.45496092 443.45976896 256.41977611 477.8861319 256.375 512.3125 C221.30868217 512.40437412 186.242389 512.47469946 151.17597581 512.51676132 C147.02112561 512.52176319 142.86627564 512.52694058 138.71142578 512.53222656 C137.47087054 512.53380043 137.47087054 512.53380043 136.20525357 512.53540608 C122.87398837 512.55273611 109.54279329 512.5842322 96.21156946 512.62111118 C82.49760814 512.65872806 68.78368313 512.68077929 55.06967235 512.68885398 C46.6307061 512.69429914 38.19193816 512.71139442 29.75303307 512.74416587 C23.93922309 512.76557107 18.1255132 512.77164246 12.31166682 512.76650551 C8.97439819 512.76398326 5.63774365 512.76970162 2.30049324 512.7893219 C-54.97421072 513.10909482 -110.30079478 495.72118054 -155.625 460.3125 C-156.59695312 459.55324219 -157.56890625 458.79398437 -158.5703125 458.01171875 C-173.94991644 445.67736402 -188.50265196 431.87645499 -200.625 416.3125 C-201.77162109 414.90871094 -201.77162109 414.90871094 -202.94140625 413.4765625 C-228.5282721 381.52378299 -245.03801276 342.35738322 -252.625 302.3125 C-252.78871094 301.50312988 -252.95242187 300.69375977 -253.12109375 299.85986328 C-258.59069558 271.87335724 -258.46977511 238.21828161 -252.625 210.3125 C-252.42632324 209.33764648 -252.22764648 208.36279297 -252.02294922 207.35839844 C-241.93598313 159.13741149 -219.89911449 114.53770064 -185.40722656 79.14160156 C-183.63301167 77.32072238 -181.87518486 75.48496071 -180.1171875 73.6484375 C-173.01562574 66.30860161 -165.60158994 59.73928631 -157.40917969 53.64355469 C-155.59628085 52.2910746 -153.80174757 50.91656557 -152.0078125 49.5390625 C-143.60124472 43.15234877 -134.85975388 37.61076633 -125.65234375 32.45166016 C-123.78933792 31.40484113 -121.94116361 30.33571119 -120.09375 29.26171875 C-83.4933446 8.69459905 -41.63834482 -0.15855121 0 0 Z M-99.625 68.3125 C-100.77871094 68.92609375 -101.93242187 69.5396875 -103.12109375 70.171875 C-153.19539996 97.6814825 -189.23128302 145.08456081 -205.16479492 199.609375 C-208.27096507 210.72681433 -210.27509922 221.85716667 -211.625 233.3125 C-211.82222656 234.86710937 -211.82222656 234.86710937 -212.0234375 236.453125 C-216.13030136 275.30183715 -208.18051853 315.56157615 -190.625 350.3125 C-190.29274414 350.98345703 -189.96048828 351.65441406 -189.61816406 352.34570312 C-164.73690023 402.38649282 -119.48838624 440.78940655 -66.6875 458.6875 C-58.66105477 461.29828397 -50.5649242 463.42184022 -42.3125 465.1875 C-41.41990479 465.37876465 -40.52730957 465.5700293 -39.60766602 465.76708984 C-22.77309916 469.09321961 -5.91877624 469.60149596 11.1862793 469.53955078 C13.40580236 469.53898514 15.62532579 469.53930621 17.84484863 469.54043579 C23.80844299 469.54100433 29.77195518 469.52933172 35.73553061 469.51528788 C41.99082241 469.50269644 48.24611655 469.50160344 54.50141907 469.49923706 C64.98053362 469.49374799 75.45962039 469.48129705 85.9387207 469.46337891 C96.72192234 469.4449602 107.50511584 469.4308332 118.28833008 469.42236328 C119.28895347 469.42157511 119.28895347 469.42157511 120.30979147 469.42077102 C123.6570654 469.41816054 127.00433938 469.41563322 130.3516134 469.41314721 C158.02609629 469.39230094 185.70054603 469.35717325 213.375 469.3125 C213.44534579 440.55558415 213.49811271 411.79868136 213.53043652 383.04169655 C213.53351573 380.37366353 213.53661962 377.70563056 213.53979492 375.03759766 C213.54058185 374.37452002 213.54136878 373.71144238 213.54217956 373.02827148 C213.55436122 363.01117292 213.57545104 352.99412452 213.60131836 342.97705078 C213.63139206 331.32542773 213.65061529 319.67384362 213.65726548 308.02218282 C213.66114755 301.86319551 213.67015248 295.70431952 213.69219017 289.54536819 C213.84577246 244.84389204 211.92811931 202.99713618 191.375 162.3125 C191.04274414 161.64154297 190.71048828 160.97058594 190.36816406 160.27929688 C165.4515312 110.16737356 120.66304462 72.64456605 68.13671875 54.23974609 C53.82299778 49.43391934 39.34868962 46.1726317 24.375 44.3125 C23.38371094 44.18101563 22.39242187 44.04953125 21.37109375 43.9140625 C-19.9643955 39.46162261 -63.21494255 48.48650931 -99.625 68.3125 Z " fill="#000000" transform="translate(255.625,-0.3125)"/>
<path d="M0 0 C8.47839953 5.74835488 14.15787045 12.35692951 16.953125 22.32421875 C17.94613101 32.06953351 17.13484193 40.45532395 11.375 48.5390625 C6.23738933 54.75279433 0.79725423 59.1874667 -7.046875 61.32421875 C-18.4614738 62.35105504 -28.14156522 61.49044455 -37.359375 54.13671875 C-44.29723199 47.59130619 -48.00408464 39.01573584 -48.359375 29.51171875 C-48.09388831 19.77720672 -44.92373986 12.2540845 -38.046875 5.32421875 C-27.73456772 -3.05116821 -12.26833255 -6.67266179 0 0 Z " fill="#000000" transform="translate(378.046875,226.67578125)"/>
<path d="M0 0 C8.49861163 5.15714673 12.98157748 11.57358833 16.48828125 20.7578125 C18.24813676 29.8770638 17.55961941 38.64390107 12.734375 46.73828125 C7.48424204 54.01050718 0.87961453 58.9802308 -7.82421875 61.3203125 C-19.22090578 62.3359758 -27.97990731 61.42996824 -37.07421875 54.0703125 C-43.24014923 48.33427757 -47.29614967 41.50275793 -48.16015625 33.0234375 C-48.2851931 21.97017963 -46.37331059 14.2075731 -38.68359375 6.07421875 C-28.35586249 -3.66769582 -13.05446164 -6.2749177 0 0 Z " fill="#000000" transform="translate(164.82421875,226.6796875)"/>
<path d="M0 0 C8.34468007 4.97590182 13.53387008 11.86345977 16.109375 21.2578125 C17.10789012 32.35758522 16.45884702 41.9922991 9.359375 51.0703125 C3.68970122 57.1408723 -3.36319277 60.85433149 -11.66015625 61.59375 C-19.4412515 61.76746925 -26.16911331 61.58646603 -32.890625 57.2578125 C-33.59703125 56.82210937 -34.3034375 56.38640625 -35.03125 55.9375 C-41.93709584 51.25687115 -45.68778524 45.25759899 -47.890625 37.2578125 C-48.88914012 26.15803978 -48.24009702 16.5233259 -41.140625 7.4453125 C-30.84272373 -3.5807232 -13.59449082 -6.52353083 0 0 Z " fill="#000000" transform="translate(271.890625,226.7421875)"/>
</svg>
