<svg width="173" height="24" viewBox="0 0 173 24" fill="none" xmlns="http://www.w3.org/2000/svg">
<path d="M0.671969 1.2H13.152L13.392 6.192H12.96C12.368 4.464 11.68 3.288 10.896 2.664C10.128 2.04 8.97597 1.728 7.43997 1.728H6.76797V9.528H7.84797C8.61597 9.528 9.25597 9.248 9.76797 8.688C10.28 8.128 10.632 7.36 10.824 6.384H11.184V13.488H10.776C10.52 12.288 10.16 11.432 9.69597 10.92C9.24797 10.408 8.63197 10.152 7.84797 10.152H6.76797V17.472H9.74397V18H0.671969V17.472H2.08797V1.728H0.671969V1.2ZM22.1583 7.248C21.5663 7.248 21.0463 7.632 20.5983 8.4C20.1503 9.168 19.9263 10.08 19.9263 11.136V17.568H21.6303V18H14.1423V17.568H15.4623V7.008H14.1423V6.576H19.9263V8.88C20.1343 8.064 20.5343 7.44 21.1263 7.008C21.7183 6.56 22.3903 6.336 23.1423 6.336C23.8943 6.336 24.5023 6.552 24.9663 6.984C25.4463 7.4 25.6863 8 25.6863 8.784C25.6863 9.552 25.5103 10.144 25.1583 10.56C24.8063 10.976 24.2623 11.184 23.5263 11.184C22.8063 11.184 22.2703 10.944 21.9183 10.464C21.5823 9.984 21.5423 9.32 21.7983 8.472H22.6623C23.0623 7.656 22.8943 7.248 22.1583 7.248ZM29.5532 4.92C28.7052 4.92 28.0972 4.704 27.7292 4.272C27.3772 3.84 27.2012 3.304 27.2012 2.664C27.2012 2.024 27.3932 1.496 27.7772 1.08C28.1772 0.664 28.7772 0.456 29.5772 0.456C30.3772 0.456 30.9852 0.648 31.4012 1.032C31.8172 1.4 32.0252 1.936 32.0252 2.64C32.0252 3.328 31.8252 3.88 31.4252 4.296C31.0252 4.712 30.4012 4.92 29.5532 4.92ZM25.9292 6.576H31.8092V17.568H33.1532V18H26.0252V17.568H27.3452V7.008H25.9292V6.576ZM39.9543 18.24C37.8903 18.24 36.3383 17.712 35.2983 16.656C34.2743 15.584 33.7623 14.104 33.7623 12.216C33.7623 10.312 34.3383 8.856 35.4903 7.848C36.6583 6.84 38.1383 6.336 39.9303 6.336C43.5623 6.336 45.3063 8.16 45.1623 11.808H38.3943V12.744C38.3943 14.312 38.5943 15.496 38.9943 16.296C39.3943 17.096 40.0903 17.496 41.0823 17.496C42.9383 17.496 44.1543 16.504 44.7303 14.52L45.1623 14.592C44.8583 15.744 44.3063 16.64 43.5063 17.28C42.7223 17.92 41.5383 18.24 39.9543 18.24ZM38.4183 11.328H40.8903V10.152C40.8903 8.856 40.8103 7.976 40.6503 7.512C40.5063 7.032 40.2023 6.792 39.7383 6.792C39.2903 6.792 38.9543 7.048 38.7303 7.56C38.5223 8.056 38.4183 8.92 38.4183 10.152V11.328ZM46.0653 6.576H51.8493V8.784C52.1053 8.048 52.4973 7.456 53.0253 7.008C53.5533 6.56 54.3533 6.336 55.4253 6.336C57.9053 6.336 59.1453 7.672 59.1453 10.344V17.568H60.4893V18H53.6973V17.568H54.6813V9.768C54.6813 8.808 54.6173 8.192 54.4893 7.92C54.3613 7.632 54.1293 7.488 53.7933 7.488C53.2813 7.488 52.8253 7.824 52.4253 8.496C52.0413 9.168 51.8493 9.984 51.8493 10.944V17.568H52.8813V18H46.0653V17.568H47.3853V7.008H46.0653V6.576ZM65.6784 13.032C65.6784 14.712 65.7664 15.832 65.9424 16.392C66.1184 16.936 66.4384 17.208 66.9024 17.208C67.3824 17.208 67.7904 17 68.1264 16.584C68.4784 16.168 68.6544 15.552 68.6544 14.736V9.504C68.6544 8.816 68.5184 8.232 68.2464 7.752C67.9744 7.272 67.5744 7.032 67.0464 7.032C66.5184 7.032 66.1584 7.384 65.9664 8.088C65.7744 8.792 65.6784 10.024 65.6784 11.784V13.032ZM68.9664 18L68.7024 16.32C68.1584 17.6 67.0544 18.24 65.3904 18.24C64.0144 18.24 62.9424 17.744 62.1744 16.752C61.4224 15.76 61.0464 14.28 61.0464 12.312C61.0464 8.328 62.6304 6.336 65.7984 6.336C67.2064 6.336 68.1344 6.728 68.5824 7.512V0.431999H67.1184V-1.43051e-06H73.1184V17.568H74.2944V18H68.9664ZM75.8758 11.328V10.608H81.9238V11.328H75.8758ZM90.9853 9.504H89.7133V17.544H91.2733V18H83.4733V17.544H85.0333V1.656H83.4733V1.2H90.7213C92.8013 1.2 94.2733 1.312 95.1373 1.536C96.0173 1.744 96.6333 2 96.9853 2.304C97.7533 2.928 98.1373 3.92 98.1373 5.28C98.1373 6.64 97.8013 7.616 97.1293 8.208C96.4573 8.784 95.4333 9.128 94.0573 9.24V9.312C95.3533 9.488 96.2573 9.872 96.7693 10.464C97.2813 11.056 97.5373 12.048 97.5373 13.44V14.712C97.5373 15.544 97.5773 16.104 97.6573 16.392C97.7533 16.68 97.9453 16.824 98.2333 16.824C98.5213 16.824 98.7453 16.696 98.9053 16.44C99.0813 16.168 99.2413 15.608 99.3853 14.76L99.7933 14.808C99.6173 16.168 99.3053 17.08 98.8573 17.544C98.4253 18.008 97.5533 18.24 96.2413 18.24C94.9293 18.24 93.9933 17.936 93.4333 17.328C92.8893 16.704 92.6173 15.544 92.6173 13.848V12.096C92.6173 11.2 92.4973 10.544 92.2573 10.128C92.0333 9.712 91.6093 9.504 90.9853 9.504ZM89.7133 1.656V9.048H90.4813C91.3933 9.048 92.0653 8.768 92.4973 8.208C92.9453 7.648 93.1693 6.736 93.1693 5.472V4.776C93.1693 3.512 92.9533 2.68 92.5213 2.28C92.1053 1.864 91.4333 1.656 90.5053 1.656H89.7133ZM106.611 18.24C104.547 18.24 102.995 17.712 101.955 16.656C100.931 15.584 100.419 14.104 100.419 12.216C100.419 10.312 100.995 8.856 102.147 7.848C103.315 6.84 104.795 6.336 106.587 6.336C110.219 6.336 111.963 8.16 111.819 11.808H105.051V12.744C105.051 14.312 105.251 15.496 105.651 16.296C106.051 17.096 106.747 17.496 107.739 17.496C109.595 17.496 110.811 16.504 111.387 14.52L111.819 14.592C111.515 15.744 110.963 16.64 110.163 17.28C109.379 17.92 108.195 18.24 106.611 18.24ZM105.075 11.328H107.547V10.152C107.547 8.856 107.467 7.976 107.307 7.512C107.163 7.032 106.859 6.792 106.395 6.792C105.947 6.792 105.611 7.048 105.387 7.56C105.179 8.056 105.075 8.92 105.075 10.152V11.328ZM117.546 13.032C117.546 14.68 117.626 15.792 117.786 16.368C117.946 16.928 118.258 17.208 118.722 17.208C119.186 17.208 119.602 16.92 119.97 16.344C120.338 15.768 120.522 14.976 120.522 13.968V9.504C120.522 8.816 120.378 8.232 120.09 7.752C119.818 7.272 119.434 7.032 118.938 7.032C118.378 7.032 118.002 7.392 117.81 8.112C117.634 8.816 117.546 10.04 117.546 11.784V13.032ZM120.522 23.28V16.176C119.914 17.552 118.874 18.24 117.402 18.24C114.41 18.24 112.914 16.248 112.914 12.264C112.914 10.232 113.322 8.736 114.138 7.776C114.97 6.816 116.21 6.336 117.858 6.336C119.186 6.336 120.122 6.84 120.666 7.848L120.834 6.576H126.306V7.008H124.986V23.28H126.162V23.712H118.074V23.28H120.522ZM140.823 18H135.351L135.087 16.248C134.831 16.888 134.447 17.384 133.935 17.736C133.439 18.072 132.695 18.24 131.703 18.24C129.223 18.24 127.983 16.904 127.983 14.232V7.008H126.639V6.576H132.447V14.808C132.447 15.768 132.511 16.4 132.639 16.704C132.783 17.008 133.055 17.16 133.455 17.16C133.871 17.16 134.239 16.912 134.559 16.416C134.879 15.92 135.039 15.232 135.039 14.352V7.008H133.935V6.576H139.503V17.568H140.823V18ZM147.626 18.24C145.562 18.24 144.01 17.712 142.97 16.656C141.946 15.584 141.434 14.104 141.434 12.216C141.434 10.312 142.01 8.856 143.162 7.848C144.33 6.84 145.81 6.336 147.602 6.336C151.234 6.336 152.978 8.16 152.834 11.808H146.066V12.744C146.066 14.312 146.266 15.496 146.666 16.296C147.066 17.096 147.762 17.496 148.754 17.496C150.61 17.496 151.826 16.504 152.402 14.52L152.834 14.592C152.53 15.744 151.978 16.64 151.178 17.28C150.394 17.92 149.21 18.24 147.626 18.24ZM146.09 11.328H148.562V10.152C148.562 8.856 148.482 7.976 148.322 7.512C148.178 7.032 147.874 6.792 147.41 6.792C146.962 6.792 146.626 7.048 146.402 7.56C146.194 8.056 146.09 8.92 146.09 10.152V11.328ZM154.007 18.24V13.944H154.295C154.711 15.336 155.271 16.312 155.975 16.872C156.679 17.432 157.559 17.712 158.615 17.712C160.247 17.712 161.063 17.192 161.063 16.152C161.063 15.704 160.863 15.368 160.463 15.144C159.839 14.792 159.039 14.52 158.063 14.328C156.975 14.04 156.063 13.656 155.327 13.176C154.447 12.6 154.007 11.688 154.007 10.44C154.007 9.192 154.391 8.2 155.159 7.464C155.927 6.712 156.951 6.336 158.231 6.336C159.015 6.336 159.823 6.52 160.655 6.888C160.959 7.016 161.191 7.08 161.351 7.08C161.511 7.08 161.647 7.024 161.759 6.912C161.871 6.8 162.007 6.592 162.167 6.288H162.431V9.96H162.143C161.327 7.88 160.063 6.84 158.351 6.84C157.599 6.84 157.039 6.976 156.671 7.248C156.303 7.504 156.119 7.832 156.119 8.232C156.119 8.472 156.175 8.664 156.287 8.808C156.399 8.936 156.487 9.032 156.551 9.096C156.615 9.16 156.719 9.232 156.863 9.312C157.007 9.376 157.127 9.432 157.223 9.48C157.319 9.512 157.463 9.56 157.655 9.624C157.863 9.688 158.015 9.728 158.111 9.744C159.199 10.016 159.983 10.256 160.463 10.464C160.943 10.656 161.399 10.896 161.831 11.184C162.711 11.792 163.151 12.776 163.151 14.136C163.151 15.48 162.751 16.504 161.951 17.208C161.151 17.896 160.055 18.24 158.663 18.24C157.671 18.24 156.711 18.008 155.783 17.544C155.591 17.416 155.439 17.352 155.327 17.352C154.975 17.352 154.631 17.648 154.295 18.24H154.007ZM164.827 14.568V7.008H163.507V6.576H164.827V3.48L169.291 2.376V6.576H172.411V7.008H169.291V15.096C169.291 15.848 169.363 16.4 169.507 16.752C169.667 17.104 169.987 17.28 170.467 17.28C170.947 17.28 171.363 17.04 171.715 16.56C172.083 16.08 172.323 15.424 172.435 14.592L172.843 14.64C172.715 15.744 172.363 16.624 171.787 17.28C171.211 17.92 170.259 18.24 168.931 18.24C167.603 18.24 166.587 17.976 165.883 17.448C165.179 16.92 164.827 15.96 164.827 14.568Z" fill="#22172A"/>
</svg>
