<svg width="40" height="40" viewBox="0 0 40 40" fill="none" xmlns="http://www.w3.org/2000/svg">
<rect opacity="0.08" x="0.5" y="0.5" width="39" height="39" rx="19.5" stroke="#22172A"/>
<g clip-path="url(#clip0_427_521)">
<path d="M23 18C24.6569 18 26 16.6569 26 15C26 13.3431 24.6569 12 23 12C21.3431 12 20 13.3431 20 15C20 16.6569 21.3431 18 23 18Z" stroke="#22172A" stroke-width="2" stroke-linecap="round" stroke-linejoin="round"/>
<path d="M12 15H20" stroke="#22172A" stroke-width="2" stroke-linecap="round" stroke-linejoin="round"/>
<path d="M26 15L28 15" stroke="#22172A" stroke-width="2" stroke-linecap="round" stroke-linejoin="round"/>
<path d="M17 28C18.6569 28 20 26.6569 20 25C20 23.3431 18.6569 22 17 22C15.3431 22 14 23.3431 14 25C14 26.6569 15.3431 28 17 28Z" stroke="#22172A" stroke-width="2" stroke-linecap="round" stroke-linejoin="round"/>
<path d="M12 25H14" stroke="#22172A" stroke-width="2" stroke-linecap="round" stroke-linejoin="round"/>
<path d="M20 25L28 25" stroke="#22172A" stroke-width="2" stroke-linecap="round" stroke-linejoin="round"/>
</g>
<defs>
<clipPath id="clip0_427_521">
<rect width="24" height="24" fill="white" transform="translate(8 8)"/>
</clipPath>
</defs>
</svg>
