<?xml version="1.0" encoding="UTF-8"?>
<svg version="1.1" xmlns="http://www.w3.org/2000/svg" width="512" height="512">
<path d="M0 0 C14.35546434 11.70990834 26.06794902 27.89121936 28.30664062 46.72021484 C29.76601625 68.44058871 26.97909464 88.67535502 12.32739258 105.62890625 C0.15550478 118.96113668 -15.82208098 129.76915968 -34.35791016 130.87988281 C-47.18682311 131.38383848 -59.42571843 131.70639887 -71.19335938 126.03271484 C-75.46334214 122.08298079 -77.37443071 117.95271553 -78.19335938 112.22021484 C-77.37307646 106.47823444 -75.34059292 102.28709553 -71.13085938 98.28271484 C-67.55605166 95.99117143 -64.85053144 95.58284231 -60.69335938 95.59521484 C-59.82710937 95.59263672 -58.96085938 95.59005859 -58.06835938 95.58740234 C-55.69335938 95.72021484 -55.69335938 95.72021484 -52.69335938 96.72021484 C-38.96907689 97.70554795 -28.36013764 96.66806802 -17.31835938 87.65771484 C-9.92940402 80.56622146 -5.68032174 71.43871519 -5.40087891 61.23779297 C-5.27932798 48.60835568 -8.4280788 39.24746467 -17.31835938 30.03662109 C-25.04317595 22.86613163 -34.3124088 20.34182865 -44.69335938 19.72021484 C-54.4946408 20.12245622 -64.27605232 24.27571356 -71.56835938 30.84521484 C-79.74746531 39.78610025 -82.11498374 50.04558152 -81.69335938 61.72021484 C-81.48356026 63.3270292 -81.25660824 64.93177978 -81.00585938 66.53271484 C-80.45124886 70.9776368 -81.43047195 73.79787665 -83.69335938 77.72021484 C-87.80854071 82.66001826 -92.34480824 84.62661802 -98.13085938 87.03271484 C-134.47046211 102.82296127 -161.4230765 129.97228261 -176.38476562 166.79833984 C-179.33066303 174.3255376 -181.70114906 181.88035304 -183.63867188 189.73193359 C-185.1788625 194.09580703 -187.4706909 196.8337802 -191.19335938 199.53271484 C-197.54050939 201.68621217 -203.99787174 201.87542383 -210.19335938 199.22021484 C-214.46773364 194.94584058 -216.52966123 191.12197361 -216.94335938 185.05224609 C-216.83015039 180.208919 -215.67583277 175.78688882 -214.31835938 171.15771484 C-214.05434326 170.2536792 -213.79032715 169.34964355 -213.51831055 168.41821289 C-204.73146314 139.60081375 -189.3227242 115.40996758 -168.69335938 93.72021484 C-168.11328125 93.08728516 -167.53320312 92.45435547 -166.93554688 91.80224609 C-159.17705859 83.59540296 -149.62621811 76.87345566 -140.31835938 70.53271484 C-139.70839111 70.11481689 -139.09842285 69.69691895 -138.4699707 69.26635742 C-135.16694226 67.08542071 -131.94488206 65.33567571 -128.25976562 63.88037109 C-123.97394902 62.16368182 -120.36749195 60.57028546 -116.69335938 57.72021484 C-114.98131494 52.96737508 -114.84824714 48.67798216 -114.79052734 43.67285156 C-113.97216803 27.22753051 -101.58681482 13.16538229 -90.29101562 2.43896484 C-65.64956632 -18.88142391 -25.8451148 -19.5328852 0 0 Z " fill="#212121" transform="translate(299.693359375,65.27978515625)"/>
<path d="M0 0 C10.60004973 4.67403767 18.0442984 15.18241868 25 24 C25.74507813 24.93972656 26.49015625 25.87945312 27.2578125 26.84765625 C48.60647365 54.48189882 63.42632829 90.21768907 62.9296875 125.47265625 C62.91573946 127.8552243 62.90611942 130.2377651 62.8984375 132.62036133 C62.88279273 134.2505139 62.84921278 135.88059141 62.79785156 137.51000977 C62.25938815 147.28430862 62.25938815 147.28430862 66.35742188 155.73266602 C69.19726215 157.85315294 69.19726215 157.85315294 72.16943359 159.41064453 C84.96121493 166.59319555 91.98674811 182.6590728 96 196 C96.2475 196.81855469 96.495 197.63710938 96.75 198.48046875 C101.26055384 216.67930057 97.62403249 236.60208088 88.1953125 252.5625 C77.96038527 268.9675481 62.68404686 280.64263709 44.0625 285.9375 C24.03498369 290.07832432 3.67984029 287.89402943 -13.83007812 276.84521484 C-30.70886689 265.38116375 -40.87743672 249.54488738 -46 230 C-49.59460523 209.66872967 -45.42547726 189.89987135 -34.03125 172.68359375 C-23.53505603 158.81650671 -23.53505603 158.81650671 -15.484375 157.62890625 C-8.72025455 157.46463475 -4.06470875 158.3201098 1 163 C4.1971289 167.29614196 4.34863236 171.25776526 4.3984375 176.4375 C3.51767635 182.10200311 0.50360806 185.78895378 -3.4375 189.75 C-10.64652047 197.52167572 -13.41850164 206.60876716 -13.27734375 217.1171875 C-12.40199201 226.21591406 -9.30149009 234.36145347 -3 241 C-2.42507813 241.61488281 -1.85015625 242.22976563 -1.2578125 242.86328125 C5.36819151 249.28308182 14.38471885 253.51289914 23.66015625 254.06640625 C34.87048016 253.74825015 45.05683088 250.46895273 53.40625 242.7890625 C61.50353403 233.69946425 64.64433849 223.47947634 64.34765625 211.49609375 C63.37531195 201.71802468 58.92143365 192.29479148 51.484375 185.8046875 C46.52545358 182.05086709 41.6910465 179.31292198 35.9453125 176.99609375 C31.78242601 174.86449525 29.46476385 171.39429155 28 167 C27.90681545 165.58578743 27.87004451 164.16727062 27.875 162.75 C27.87113281 161.65945313 27.87113281 161.65945313 27.8671875 160.546875 C28 158 28 158 28.49560547 154.78369141 C29.34352304 148.42307835 29.24461491 142.03169998 29.25 135.625 C29.25067474 134.90657928 29.25134949 134.18815857 29.25204468 133.44796753 C29.23593482 122.66083503 28.73462213 112.48820939 26 102 C25.82839355 101.30986816 25.65678711 100.61973633 25.47998047 99.90869141 C22.81951281 89.34052452 19.00085946 79.66632595 14 70 C13.67547852 69.35708008 13.35095703 68.71416016 13.01660156 68.05175781 C5.48263338 53.25367316 -4.61085773 40.71157724 -16.7578125 29.4296875 C-20.27814498 25.61497181 -22.43214437 21.75728208 -22.375 16.5 C-22.18035355 11.66627988 -21.07519264 8.04198956 -17.53515625 4.55859375 C-11.84609201 -0.32370833 -7.37415322 -1.0157774 0 0 Z " fill="#212121" transform="translate(369,149)"/>
<path d="M0 0 C3.63856034 3.02381671 6.98138077 6.28228305 10.27880859 9.671875 C10.88208984 10.27773438 11.48537109 10.88359375 12.10693359 11.5078125 C20.76587217 20.85035149 27.24142036 33.73623301 27.77880859 46.546875 C27.52280788 52.68206458 25.2344996 55.86286082 20.77880859 59.984375 C16.38289144 62.95161908 12.55766049 63.11177932 7.27880859 62.671875 C3.0391457 61.28506938 0.0191872 59.49451789 -2.97119141 56.171875 C-4.54221241 53.029833 -5.56074566 50.13892346 -6.59619141 46.796875 C-9.88616949 36.4806259 -17.05291893 28.61354543 -26.53369141 23.359375 C-36.6263783 18.77717665 -46.89909791 18.94607432 -57.28369141 22.296875 C-67.75605988 26.42369817 -74.04818912 33.26865855 -78.97509766 43.19921875 C-82.83076365 52.348029 -83.23926141 62.0419588 -80.09619141 71.484375 C-75.32824541 82.73606764 -68.11795475 90.88419081 -56.59619141 95.671875 C-46.24746777 98.49594321 -34.98648722 97.77723453 -25.35791016 93.1796875 C-22.80179803 91.71797004 -20.43051716 90.12976805 -18.03369141 88.421875 C-13.82266459 85.47491772 -9.89816964 84.03990274 -4.72119141 84.671875 C0.68555489 86.58795 4.72330184 89.29184334 9.21630859 92.796875 C34.18144267 111.54093395 63.24191755 120.86673043 94.40380859 120.984375 C95.11246063 120.98765808 95.82111267 120.99094116 96.55123901 120.99432373 C110.16445006 121.0146841 122.98009016 119.40283264 136.05615234 115.5625 C141.64532266 114.01785657 146.84102454 113.58245817 152.09130859 116.359375 C155.6913619 118.97117838 158.35563556 121.36394241 160.02880859 125.546875 C160.82653374 132.32753876 160.27817434 137.10588971 156.27880859 142.671875 C150.9172616 147.18084812 144.87879694 148.91191079 138.15380859 150.359375 C137.30560547 150.55853516 136.45740234 150.75769531 135.58349609 150.96289062 C122.36673418 153.9622302 109.40888968 155.08228292 95.90380859 155.046875 C95.11844727 155.04633118 94.33308594 155.04578735 93.52392578 155.04522705 C79.80758357 155.00179011 66.6519514 153.90611358 53.27880859 150.671875 C51.98233398 150.35839111 51.98233398 150.35839111 50.65966797 150.03857422 C31.67942559 145.25047453 11.97629062 137.15460013 -3.79150391 125.37890625 C-6.5089382 123.44398219 -6.5089382 123.44398219 -9.16650391 123.76953125 C-10.00955078 124.06730469 -10.85259766 124.36507812 -11.72119141 124.671875 C-12.79111328 125.04183594 -13.86103516 125.41179687 -14.96337891 125.79296875 C-16.16220703 126.22738281 -17.36103516 126.66179687 -18.59619141 127.109375 C-36.85168578 133.3798481 -56.14766043 133.21503292 -73.75073242 125.00854492 C-91.42855333 116.36838895 -105.05084232 102.66716233 -112.07275391 84.09765625 C-118.68725473 63.23104754 -116.95562332 42.84745792 -106.9921875 23.38769531 C-97.85869311 6.50217356 -82.34709186 -5.67104208 -64.03222656 -11.30566406 C-42.47067488 -17.12429213 -17.88595836 -13.80136361 0 0 Z " fill="#212121" transform="translate(160.72119140625,305.328125)"/>
</svg>
